<svg viewBox="0 0 278.66 222.03" xmlns:xlink="http://www.w3.org/1999/xlink" xmlns="http://www.w3.org/2000/svg"><defs><style>.cls-1{fill:url(#未命名的渐变_26);}.cls-2{fill:#cde9f9;}.cls-3{fill:url(#未命名的渐变_26-2);}.cls-4{fill:url(#未命名的渐变_26-3);}.cls-5{fill:url(#未命名的渐变_26-4);}.cls-6{fill:url(#未命名的渐变_26-5);}.cls-7{fill:#3c7fbe;}.cls-8{fill:#aecfdc;}.cls-9{opacity:0.54;}.cls-10{fill:url(#未命名的渐变_37);}.cls-11{fill:url(#未命名的渐变_28);}.cls-12{fill:url(#未命名的渐变_37-2);}.cls-13{fill:url(#未命名的渐变_37-3);}.cls-14{fill:#2a2f6d;}.cls-15{fill:url(#未命名的渐变_31);}.cls-16{fill:url(#未命名的渐变_66);}.cls-17{fill:url(#未命名的渐变_27);}.cls-18{fill:url(#未命名的渐变_25);}.cls-19{fill:url(#未命名的渐变_26-6);}.cls-20{fill:url(#未命名的渐变_26-7);}.cls-21{fill:url(#未命名的渐变_37-4);}.cls-22,.cls-83{fill:#fff;}.cls-23{fill:url(#未命名的渐变_28-2);}.cls-24{fill:#95b8c4;}.cls-25{fill:#306097;}.cls-26{fill:url(#未命名的渐变_26-8);}.cls-27{fill:url(#未命名的渐变_37-5);}.cls-28{fill:url(#未命名的渐变_37-6);}.cls-29{fill:url(#未命名的渐变_37-7);}.cls-30{fill:url(#未命名的渐变_37-8);}.cls-31{fill:url(#未命名的渐变_51);}.cls-32{fill:url(#未命名的渐变_51-2);}.cls-33{fill:url(#未命名的渐变_51-3);}.cls-34{fill:url(#未命名的渐变_37-9);}.cls-35{fill:url(#未命名的渐变_37-10);}.cls-36{fill:url(#未命名的渐变_37-11);}.cls-37{fill:url(#未命名的渐变_37-12);}.cls-38{fill:url(#未命名的渐变_37-13);}.cls-39{fill:url(#未命名的渐变_37-14);}.cls-40{fill:url(#未命名的渐变_37-15);}.cls-41{fill:url(#未命名的渐变_37-16);}.cls-42{fill:url(#未命名的渐变_37-17);}.cls-43{fill:url(#未命名的渐变_37-18);}.cls-44{fill:url(#未命名的渐变_37-19);}.cls-45{fill:url(#未命名的渐变_37-20);}.cls-46{fill:url(#未命名的渐变_37-21);}.cls-47{fill:url(#未命名的渐变_37-22);}.cls-48{fill:url(#未命名的渐变_37-23);}.cls-49{fill:url(#未命名的渐变_37-24);}.cls-50{fill:url(#未命名的渐变_37-25);}.cls-51{fill:url(#未命名的渐变_51-4);}.cls-52{fill:url(#未命名的渐变_51-5);}.cls-53{fill:url(#未命名的渐变_51-6);}.cls-54{fill:url(#未命名的渐变_37-26);}.cls-55{fill:url(#未命名的渐变_37-27);}.cls-56{fill:url(#未命名的渐变_37-28);}.cls-57{fill:url(#未命名的渐变_37-29);}.cls-58{fill:url(#未命名的渐变_37-30);}.cls-59{fill:url(#未命名的渐变_37-31);}.cls-60{fill:url(#未命名的渐变_37-32);}.cls-61{fill:url(#未命名的渐变_37-33);}.cls-62{fill:url(#未命名的渐变_37-34);}.cls-63{fill:url(#未命名的渐变_37-35);}.cls-64{fill:url(#未命名的渐变_37-36);}.cls-65{fill:url(#未命名的渐变_37-37);}.cls-66{fill:url(#未命名的渐变_37-38);}.cls-67{opacity:0.46;}.cls-68{fill:#e7f6fd;}.cls-69{fill:url(#未命名的渐变_37-39);}.cls-70{fill:url(#未命名的渐变_66-2);}.cls-71{fill:url(#未命名的渐变_84);}.cls-72{fill:url(#未命名的渐变_29);}.cls-73{fill:url(#未命名的渐变_30);}.cls-74{fill:url(#未命名的渐变_37-40);}.cls-75{fill:url(#未命名的渐变_37-41);}.cls-76{fill:url(#未命名的渐变_37-42);}.cls-77{fill:url(#未命名的渐变_37-43);}.cls-78{fill:url(#未命名的渐变_37-44);}.cls-79{fill:url(#未命名的渐变_37-45);}.cls-80{fill:url(#未命名的渐变_37-46);}.cls-81{fill:url(#未命名的渐变_37-47);}.cls-103,.cls-82{stroke:#fff;stroke-miterlimit:10;stroke-width:0.29px;}.cls-82{fill:url(#未命名的渐变_37-48);}.cls-83{fill-rule:evenodd;}.cls-84{fill:#fde0d9;}.cls-85{fill:url(#未命名的渐变_42);}.cls-86{fill:#222457;}.cls-87{fill:url(#未命名的渐变_97);}.cls-88{fill:url(#未命名的渐变_42-2);}.cls-89{fill:url(#未命名的渐变_42-3);}.cls-90{opacity:0.3;isolation:isolate;fill:url(#未命名的渐变_42-4);}.cls-91{fill:#ecbfb9;}.cls-92{fill:url(#未命名的渐变_84-2);}.cls-93{fill:url(#未命名的渐变_29-2);}.cls-94{fill:url(#未命名的渐变_30-2);}.cls-95{fill:url(#未命名的渐变_37-49);}.cls-96{fill:url(#未命名的渐变_37-50);}.cls-97{fill:url(#未命名的渐变_37-51);}.cls-98{fill:url(#未命名的渐变_37-52);}.cls-99{fill:url(#未命名的渐变_37-53);}.cls-100{fill:url(#未命名的渐变_37-54);}.cls-101{fill:url(#未命名的渐变_37-55);}.cls-102{fill:url(#未命名的渐变_37-56);}.cls-103{fill:url(#未命名的渐变_37-57);}.cls-104{fill:url(#未命名的渐变_42-5);}.cls-105{fill:url(#未命名的渐变_97-2);}.cls-106{fill:#17a1db;}.cls-107{fill:url(#未命名的渐变_48);}.cls-108{fill:#a17194;}.cls-109{fill:url(#未命名的渐变_48-2);}.cls-110{fill:url(#未命名的渐变_19);}.cls-111{fill:url(#未命名的渐变_25-2);}.cls-112{fill:url(#未命名的渐变_37-58);}.cls-113{fill:url(#未命名的渐变_37-59);}.cls-114{fill:url(#未命名的渐变_25-3);}.cls-115{fill:#bd8aae;}.cls-116{fill:url(#未命名的渐变_37-60);}.cls-117{fill:url(#未命名的渐变_37-61);}.cls-118{opacity:0.53;}.cls-119{fill:url(#未命名的渐变_37-62);}.cls-120{fill:url(#未命名的渐变_37-63);}</style><linearGradient gradientUnits="userSpaceOnUse" gradientTransform="matrix(1, 0, 0, -1, 0, 315.43)" y2="209.15" x2="262.12" y1="209.15" x1="155.75" id="未命名的渐变_26"><stop stop-color="#cde8f9" offset="0"></stop><stop stop-opacity="0" stop-color="#fff" offset="1"></stop></linearGradient><linearGradient xlink:href="#未命名的渐变_26" y2="293.05" x2="235.96" y1="293.05" x1="154.78" id="未命名的渐变_26-2"></linearGradient><linearGradient xlink:href="#未命名的渐变_26" y2="270.55" x2="245.45" y1="270.55" x1="187.72" id="未命名的渐变_26-3"></linearGradient><linearGradient xlink:href="#未命名的渐变_26" y2="151.79" x2="269.17" y1="151.79" x1="202.75" id="未命名的渐变_26-4"></linearGradient><linearGradient xlink:href="#未命名的渐变_26" y2="224.37" x2="278.66" y1="224.37" x1="202.75" id="未命名的渐变_26-5"></linearGradient><linearGradient gradientUnits="userSpaceOnUse" gradientTransform="matrix(1, 0, 0, -1, 0, 315.43)" y2="175.97" x2="88.85" y1="175.97" x1="36.7" id="未命名的渐变_37"><stop stop-color="#28a8e0" offset="0.06"></stop><stop stop-opacity="0" stop-color="#29abe2" offset="1"></stop></linearGradient><linearGradient gradientUnits="userSpaceOnUse" gradientTransform="matrix(1, 0, 0, -1, 0, 315.43)" y2="189.24" x2="202.75" y1="189.24" x1="155.75" id="未命名的渐变_28"><stop stop-color="#21409a" offset="0"></stop><stop stop-opacity="0" stop-color="#29abe2" offset="1"></stop></linearGradient><linearGradient xlink:href="#未命名的渐变_37" y2="237.11" x2="219.89" y1="120.45" x1="152.54" id="未命名的渐变_37-2"></linearGradient><linearGradient xlink:href="#未命名的渐变_37" y2="200.07" x2="184.74" y1="200.07" x1="137.51" id="未命名的渐变_37-3"></linearGradient><linearGradient gradientUnits="userSpaceOnUse" gradientTransform="matrix(1, 0, 0, -1, 0, 315.43)" y2="174.65" x2="126.22" y1="154.49" x1="114.58" id="未命名的渐变_31"><stop stop-color="#64cdf6" offset="0"></stop><stop stop-opacity="0" stop-color="#fff" offset="1"></stop></linearGradient><linearGradient gradientUnits="userSpaceOnUse" gradientTransform="matrix(1, 0, 0, -1, 0, 315.43)" y2="150.66" x2="125.79" y1="130.09" x1="113.91" id="未命名的渐变_66"><stop stop-color="#64cdf6" offset="0.08"></stop><stop stop-opacity="0" stop-color="#fff" offset="1"></stop></linearGradient><linearGradient gradientUnits="userSpaceOnUse" gradientTransform="matrix(1, 0, 0, -1, 0, 315.43)" y2="170.77" x2="175.52" y1="115.52" x1="143.61" id="未命名的渐变_27"><stop stop-color="#21409a" offset="0.23"></stop><stop stop-opacity="0" stop-color="#29abe2" offset="1"></stop></linearGradient><linearGradient gradientUnits="userSpaceOnUse" gradientTransform="matrix(1, 0, 0, -1, 0, 315.43)" y2="106.17" x2="180.62" y1="180.41" x1="137.75" id="未命名的渐变_25"><stop stop-color="#bd8aae" offset="0"></stop><stop stop-opacity="0" stop-color="#2484c6" offset="1"></stop></linearGradient><linearGradient xlink:href="#未命名的渐变_26" y2="267.32" x2="82.22" y1="267.32" x1="80.82" id="未命名的渐变_26-6"></linearGradient><linearGradient xlink:href="#未命名的渐变_26" y2="269.21" x2="209.83" y1="269.21" x1="208.43" id="未命名的渐变_26-7"></linearGradient><linearGradient xlink:href="#未命名的渐变_37" y2="143.82" x2="179.19" y1="143.82" x1="140.41" id="未命名的渐变_37-4"></linearGradient><linearGradient xlink:href="#未命名的渐变_28" y2="233.67" x2="179.03" y1="233.67" x1="149.21" id="未命名的渐变_28-2"></linearGradient><linearGradient xlink:href="#未命名的渐变_26" y2="293.22" x2="82.63" y1="293.22" x1="79.28" id="未命名的渐变_26-8"></linearGradient><linearGradient xlink:href="#未命名的渐变_37" gradientTransform="matrix(0.98, 0.18, 0.18, -0.98, -9.94, 17.81)" y2="-27.32" x2="186.58" y1="-27.32" x1="165.98" id="未命名的渐变_37-5"></linearGradient><linearGradient xlink:href="#未命名的渐变_37" gradientTransform="matrix(0.98, 0.18, 0.18, -0.98, -9.94, 17.81)" y2="-27.35" x2="186.72" y1="-27.35" x1="165.83" id="未命名的渐变_37-6"></linearGradient><linearGradient xlink:href="#未命名的渐变_37" gradientTransform="matrix(0.98, 0.18, 0.18, -0.98, -9.94, 17.81)" y2="-28.58" x2="181.16" y1="-28.58" x1="167.9" id="未命名的渐变_37-7"></linearGradient><linearGradient xlink:href="#未命名的渐变_37" gradientTransform="matrix(0.98, 0.18, 0.18, -0.98, -9.94, 17.81)" y2="-28.57" x2="181.31" y1="-28.57" x1="167.75" id="未命名的渐变_37-8"></linearGradient><linearGradient gradientUnits="userSpaceOnUse" gradientTransform="matrix(1, 0, 0, -1, 0, 315.43)" y2="237.79" x2="164.75" y1="237.79" x1="148.64" id="未命名的渐变_51"><stop stop-color="#aecfdc" offset="0.37"></stop><stop stop-opacity="0" stop-color="#fff" offset="1"></stop></linearGradient><linearGradient xlink:href="#未命名的渐变_51" y2="237.59" x2="164.57" y1="237.59" x1="148.66" id="未命名的渐变_51-2"></linearGradient><linearGradient xlink:href="#未命名的渐变_51" y2="237.79" x2="164.89" y1="237.79" x1="148.5" id="未命名的渐变_51-3"></linearGradient><linearGradient xlink:href="#未命名的渐变_37" gradientTransform="matrix(0.98, 0.18, 0.18, -0.98, -9.94, 17.81)" y2="-16.38" x2="171.98" y1="-16.38" x1="170.51" id="未命名的渐变_37-9"></linearGradient><linearGradient xlink:href="#未命名的渐变_37" gradientTransform="matrix(0.98, 0.18, 0.18, -0.98, -9.94, 17.81)" y2="-17.4" x2="175.32" y1="-17.4" x1="172.29" id="未命名的渐变_37-10"></linearGradient><linearGradient xlink:href="#未命名的渐变_37" gradientTransform="matrix(0.98, 0.18, 0.18, -0.98, -9.94, 17.81)" y2="-17.17" x2="175.81" y1="-17.17" x1="173.98" id="未命名的渐变_37-11"></linearGradient><linearGradient xlink:href="#未命名的渐变_37" gradientTransform="matrix(0.98, 0.18, 0.18, -0.98, -9.94, 17.81)" y2="-18.9" x2="178.58" y1="-18.9" x1="175.55" id="未命名的渐变_37-12"></linearGradient><linearGradient xlink:href="#未命名的渐变_37" gradientTransform="matrix(0.98, 0.18, 0.18, -0.98, -9.94, 17.81)" y2="-19.7" x2="179.82" y1="-19.7" x1="177.48" id="未命名的渐变_37-13"></linearGradient><linearGradient xlink:href="#未命名的渐变_37" gradientTransform="matrix(0.98, 0.18, 0.18, -0.98, -9.94, 17.81)" y2="-21.9" x2="181.69" y1="-21.9" x1="178.65" id="未命名的渐变_37-14"></linearGradient><linearGradient xlink:href="#未命名的渐变_37" gradientTransform="matrix(0.98, 0.18, 0.18, -0.98, -9.94, 17.81)" y2="-23.46" x2="183.49" y1="-23.46" x1="180.46" id="未命名的渐变_37-15"></linearGradient><linearGradient xlink:href="#未命名的渐变_37" gradientTransform="matrix(0.98, 0.18, 0.18, -0.98, -9.94, 17.81)" y2="-25.66" x2="184.1" y1="-25.66" x1="181.73" id="未命名的渐变_37-16"></linearGradient><linearGradient xlink:href="#未命名的渐变_37" gradientTransform="matrix(0.98, 0.18, 0.18, -0.98, -9.94, 17.81)" y2="-27.86" x2="184.85" y1="-27.86" x1="181.82" id="未命名的渐变_37-17"></linearGradient><linearGradient xlink:href="#未命名的渐变_37" gradientTransform="matrix(0.98, 0.18, 0.18, -0.98, -9.94, 17.81)" y2="-30.37" x2="185.44" y1="-30.37" x1="183.31" id="未命名的渐变_37-18"></linearGradient><linearGradient xlink:href="#未命名的渐变_37" gradientTransform="matrix(0.98, 0.18, 0.18, -0.98, -9.94, 17.81)" y2="-31.9" x2="185.5" y1="-31.9" x1="182.47" id="未命名的渐变_37-19"></linearGradient><linearGradient xlink:href="#未命名的渐变_37" gradientTransform="matrix(0.98, 0.18, 0.18, -0.98, -9.94, 17.81)" y2="-34.78" x2="184.91" y1="-34.78" x1="183.49" id="未命名的渐变_37-20"></linearGradient><linearGradient xlink:href="#未命名的渐变_37" gradientTransform="matrix(0.98, 0.18, 0.18, -0.98, -9.94, 17.81)" y2="-35.61" x2="183.45" y1="-35.61" x1="181.79" id="未命名的渐变_37-21"></linearGradient><linearGradient xlink:href="#未命名的渐变_37" gradientTransform="matrix(0.98, 0.18, 0.18, -0.98, -9.94, 17.81)" y2="-38.67" x2="199.43" y1="-38.67" x1="183.37" id="未命名的渐变_37-22"></linearGradient><linearGradient xlink:href="#未命名的渐变_37" gradientTransform="matrix(0.98, 0.18, 0.18, -0.98, -9.94, 17.81)" y2="-38.69" x2="199.55" y1="-38.69" x1="183.25" id="未命名的渐变_37-23"></linearGradient><linearGradient xlink:href="#未命名的渐变_37" gradientTransform="matrix(0.98, 0.18, 0.18, -0.98, -9.94, 17.81)" y2="-39.65" x2="195.21" y1="-39.65" x1="184.87" id="未命名的渐变_37-24"></linearGradient><linearGradient xlink:href="#未命名的渐变_37" gradientTransform="matrix(0.98, 0.18, 0.18, -0.98, -9.94, 17.81)" y2="-39.65" x2="195.32" y1="-39.65" x1="184.75" id="未命名的渐变_37-25"></linearGradient><linearGradient xlink:href="#未命名的渐变_51" y2="224.02" x2="176.13" y1="224.02" x1="163.57" id="未命名的渐变_51-4"></linearGradient><linearGradient xlink:href="#未命名的渐变_51" y2="223.86" x2="175.99" y1="223.86" x1="163.58" id="未命名的渐变_51-5"></linearGradient><linearGradient xlink:href="#未命名的渐变_51" y2="224.03" x2="176.24" y1="224.03" x1="163.46" id="未命名的渐变_51-6"></linearGradient><linearGradient xlink:href="#未命名的渐变_37" gradientTransform="matrix(0.98, 0.18, 0.18, -0.98, -9.94, 17.81)" y2="-30.14" x2="188.05" y1="-30.14" x1="186.9" id="未命名的渐变_37-26"></linearGradient><linearGradient xlink:href="#未命名的渐变_37" gradientTransform="matrix(0.98, 0.18, 0.18, -0.98, -9.94, 17.81)" y2="-30.93" x2="190.65" y1="-30.93" x1="188.29" id="未命名的渐变_37-27"></linearGradient><linearGradient xlink:href="#未命名的渐变_37" gradientTransform="matrix(0.98, 0.18, 0.18, -0.98, -9.94, 17.81)" y2="-30.76" x2="191.03" y1="-30.76" x1="189.61" id="未命名的渐变_37-28"></linearGradient><linearGradient xlink:href="#未命名的渐变_37" gradientTransform="matrix(0.98, 0.18, 0.18, -0.98, -9.94, 17.81)" y2="-32.1" x2="193.2" y1="-32.1" x1="190.83" id="未命名的渐变_37-29"></linearGradient><linearGradient xlink:href="#未命名的渐变_37" gradientTransform="matrix(0.98, 0.18, 0.18, -0.98, -9.94, 17.81)" y2="-32.72" x2="194.16" y1="-32.72" x1="192.34" id="未命名的渐变_37-30"></linearGradient><linearGradient xlink:href="#未命名的渐变_37" gradientTransform="matrix(0.98, 0.18, 0.18, -0.98, -9.94, 17.81)" y2="-34.44" x2="195.62" y1="-34.44" x1="193.25" id="未命名的渐变_37-31"></linearGradient><linearGradient xlink:href="#未命名的渐变_37" gradientTransform="matrix(0.98, 0.18, 0.18, -0.98, -9.94, 17.81)" y2="-35.65" x2="197.03" y1="-35.65" x1="194.66" id="未命名的渐变_37-32"></linearGradient><linearGradient xlink:href="#未命名的渐变_37" gradientTransform="matrix(0.98, 0.18, 0.18, -0.98, -9.94, 17.81)" y2="-37.38" x2="197.5" y1="-37.38" x1="195.65" id="未命名的渐变_37-33"></linearGradient><linearGradient xlink:href="#未命名的渐变_37" gradientTransform="matrix(0.98, 0.18, 0.18, -0.98, -9.94, 17.81)" y2="-39.09" x2="198.09" y1="-39.09" x1="195.72" id="未命名的渐变_37-34"></linearGradient><linearGradient xlink:href="#未命名的渐变_37" gradientTransform="matrix(0.98, 0.18, 0.18, -0.98, -9.94, 17.81)" y2="-41.05" x2="198.54" y1="-41.05" x1="196.89" id="未命名的渐变_37-35"></linearGradient><linearGradient xlink:href="#未命名的渐变_37" gradientTransform="matrix(0.98, 0.18, 0.18, -0.98, -9.94, 17.81)" y2="-42.24" x2="198.6" y1="-42.24" x1="196.23" id="未命名的渐变_37-36"></linearGradient><linearGradient xlink:href="#未命名的渐变_37" gradientTransform="matrix(0.98, 0.18, 0.18, -0.98, -9.94, 17.81)" y2="-44.49" x2="198.13" y1="-44.49" x1="197.02" id="未命名的渐变_37-37"></linearGradient><linearGradient xlink:href="#未命名的渐变_37" gradientTransform="matrix(0.98, 0.18, 0.18, -0.98, -9.94, 17.81)" y2="-45.13" x2="196.99" y1="-45.13" x1="195.7" id="未命名的渐变_37-38"></linearGradient><linearGradient xlink:href="#未命名的渐变_37" y2="111.12" x2="107.91" y1="111.12" x1="161.88" id="未命名的渐变_37-39"></linearGradient><linearGradient xlink:href="#未命名的渐变_66" y2="132.5" x2="170.31" y1="95.93" x1="149.2" id="未命名的渐变_66-2"></linearGradient><linearGradient gradientUnits="userSpaceOnUse" gradientTransform="matrix(1, 0, 0, -1, 0, 315.43)" y2="146.66" x2="86.61" y1="146.66" x1="57.85" id="未命名的渐变_84"><stop stop-color="#95b8c4" offset="0"></stop><stop stop-color="#95b8c4" offset="0.42"></stop><stop stop-opacity="0.81" stop-color="#9cb4c2" offset="0.53"></stop><stop stop-opacity="0.49" stop-color="#aea8bc" offset="0.71"></stop><stop stop-opacity="0.09" stop-color="#c792b0" offset="0.95"></stop><stop stop-opacity="0" stop-color="#cc8dae" offset="1"></stop></linearGradient><linearGradient gradientUnits="userSpaceOnUse" gradientTransform="matrix(1, 0, 0, -1, 0, 315.43)" y2="150.99" x2="83.51" y1="150.99" x1="60.92" id="未命名的渐变_29"><stop stop-color="#fff" offset="0"></stop><stop stop-opacity="0" stop-color="#2484c6" offset="0.91"></stop></linearGradient><linearGradient gradientUnits="userSpaceOnUse" gradientTransform="matrix(1, 0, 0, -1, 0, 315.43)" y2="153.17" x2="83.91" y1="153.17" x1="60.61" id="未命名的渐变_30"><stop stop-color="#1d4989" offset="0.34"></stop><stop stop-opacity="0" stop-color="#29abe2" offset="1"></stop></linearGradient><linearGradient xlink:href="#未命名的渐变_37" y2="154.06" x2="71.08" y1="154.06" x1="71.08" id="未命名的渐变_37-40"></linearGradient><linearGradient xlink:href="#未命名的渐变_37" y2="152.46" x2="78.21" y1="152.46" x1="77.27" id="未命名的渐变_37-41"></linearGradient><linearGradient xlink:href="#未命名的渐变_37" y2="152.46" x2="67.23" y1="152.46" x1="66.28" id="未命名的渐变_37-42"></linearGradient><linearGradient xlink:href="#未命名的渐变_37" y2="151.09" x2="75.29" y1="151.09" x1="69.23" id="未命名的渐变_37-43"></linearGradient><linearGradient xlink:href="#未命名的渐变_37" y2="148.9" x2="79.55" y1="148.9" x1="77.29" id="未命名的渐变_37-44"></linearGradient><linearGradient xlink:href="#未命名的渐变_37" y2="148.9" x2="67.25" y1="148.9" x1="64.98" id="未命名的渐变_37-45"></linearGradient><linearGradient xlink:href="#未命名的渐变_37" y2="147.23" x2="78.24" y1="147.23" x1="73.43" id="未命名的渐变_37-46"></linearGradient><linearGradient xlink:href="#未命名的渐变_37" y2="146.85" x2="73.44" y1="146.85" x1="66.3" id="未命名的渐变_37-47"></linearGradient><linearGradient xlink:href="#未命名的渐变_37" y2="150.58" x2="79.55" y1="150.58" x1="64.97" id="未命名的渐变_37-48"></linearGradient><linearGradient gradientUnits="userSpaceOnUse" gradientTransform="matrix(1, 0, 0, -1, 0, 315.43)" y2="228.8" x2="120.34" y1="228.8" x1="112.78" id="未命名的渐变_42"><stop stop-color="#d2d2d1" offset="0"></stop><stop stop-color="#fff" offset="1"></stop></linearGradient><linearGradient gradientUnits="userSpaceOnUse" gradientTransform="matrix(1, 0, 0, -1, 0, 315.43)" y2="204.15" x2="126.66" y1="149.14" x1="126.66" id="未命名的渐变_97"><stop stop-color="#306097" offset="0"></stop><stop stop-opacity="0" stop-color="#2484c6" offset="1"></stop></linearGradient><linearGradient xlink:href="#未命名的渐变_42" y2="205.77" x2="142.56" y1="222.44" x1="125.9" id="未命名的渐变_42-2"></linearGradient><linearGradient xlink:href="#未命名的渐变_42" y2="229.53" x2="158.43" y1="229.53" x1="134.7" id="未命名的渐变_42-3"></linearGradient><linearGradient xlink:href="#未命名的渐变_42" y2="217.98" x2="124.57" y1="217.98" x1="113.25" id="未命名的渐变_42-4"></linearGradient><linearGradient xlink:href="#未命名的渐变_84" y2="204.77" x2="58.47" y1="204.77" x1="29.71" id="未命名的渐变_84-2"></linearGradient><linearGradient xlink:href="#未命名的渐变_29" y2="209.11" x2="55.38" y1="209.11" x1="32.79" id="未命名的渐变_29-2"></linearGradient><linearGradient xlink:href="#未命名的渐变_30" y2="211.28" x2="55.77" y1="211.28" x1="32.47" id="未命名的渐变_30-2"></linearGradient><linearGradient xlink:href="#未命名的渐变_37" y2="212.17" x2="42.95" y1="212.17" x1="42.94" id="未命名的渐变_37-49"></linearGradient><linearGradient xlink:href="#未命名的渐变_37" y2="210.57" x2="50.08" y1="210.57" x1="49.13" id="未命名的渐变_37-50"></linearGradient><linearGradient xlink:href="#未命名的渐变_37" y2="210.57" x2="39.09" y1="210.57" x1="38.14" id="未命名的渐变_37-51"></linearGradient><linearGradient xlink:href="#未命名的渐变_37" y2="209.21" x2="47.15" y1="209.21" x1="41.09" id="未命名的渐变_37-52"></linearGradient><linearGradient xlink:href="#未命名的渐变_37" y2="207.02" x2="51.41" y1="207.02" x1="49.15" id="未命名的渐变_37-53"></linearGradient><linearGradient xlink:href="#未命名的渐变_37" y2="207.02" x2="39.12" y1="207.02" x1="36.84" id="未命名的渐变_37-54"></linearGradient><linearGradient xlink:href="#未命名的渐变_37" y2="205.35" x2="50.11" y1="205.35" x1="45.3" id="未命名的渐变_37-55"></linearGradient><linearGradient xlink:href="#未命名的渐变_37" y2="204.97" x2="45.3" y1="204.97" x1="38.17" id="未命名的渐变_37-56"></linearGradient><linearGradient xlink:href="#未命名的渐变_37" y2="208.7" x2="51.41" y1="208.7" x1="36.84" id="未命名的渐变_37-57"></linearGradient><linearGradient xlink:href="#未命名的渐变_42" y2="202.78" x2="20.41" y1="202.78" x1="12.95" id="未命名的渐变_42-5"></linearGradient><linearGradient xlink:href="#未命名的渐变_97" y2="149.74" x2="40.08" y1="149.74" x1="19.09" id="未命名的渐变_97-2"></linearGradient><linearGradient gradientUnits="userSpaceOnUse" gradientTransform="matrix(1, 0, 0, -1, 0, 315.43)" y2="195.26" x2="54.84" y1="195.26" x1="12.99" id="未命名的渐变_48"><stop stop-color="#21409a" offset="0.24"></stop><stop stop-opacity="0.55" stop-color="#215dab" offset="0.66"></stop><stop stop-opacity="0" stop-color="#29abe2" offset="1"></stop></linearGradient><linearGradient xlink:href="#未命名的渐变_48" y2="188.92" x2="38.02" y1="188.92" x1="30.88" id="未命名的渐变_48-2"></linearGradient><linearGradient gradientUnits="userSpaceOnUse" gradientTransform="matrix(1, 0, 0, -1, 0, 315.43)" y2="198.68" x2="30.71" y1="198.68" x1="12.58" id="未命名的渐变_19"><stop stop-color="#6b385f" offset="0"></stop><stop stop-opacity="0.73" stop-color="#6f3b62" offset="0.42"></stop><stop stop-opacity="0.6" stop-color="#764268" offset="0.52"></stop><stop stop-opacity="0.39" stop-color="#8c567a" offset="0.69"></stop><stop stop-opacity="0.11" stop-color="#b5799b" offset="0.91"></stop><stop stop-opacity="0" stop-color="#cc8dae" offset="1"></stop></linearGradient><linearGradient xlink:href="#未命名的渐变_25" y2="216.6" x2="35.69" y1="216.6" x1="0" id="未命名的渐变_25-2"></linearGradient><linearGradient xlink:href="#未命名的渐变_37" y2="206.41" x2="228.32" y1="206.41" x1="188.45" id="未命名的渐变_37-58"></linearGradient><linearGradient xlink:href="#未命名的渐变_37" y2="204.86" x2="225.46" y1="204.86" x1="185.58" id="未命名的渐变_37-59"></linearGradient><linearGradient xlink:href="#未命名的渐变_25" y2="203.9" x2="222.56" y1="203.9" x1="182.97" id="未命名的渐变_25-3"></linearGradient><linearGradient xlink:href="#未命名的渐变_37" y2="208.69" x2="204.63" y1="208.69" x1="202.37" id="未命名的渐变_37-60"></linearGradient><linearGradient xlink:href="#未命名的渐变_37" y2="205.34" x2="210.01" y1="205.34" x1="202.37" id="未命名的渐变_37-61"></linearGradient><linearGradient xlink:href="#未命名的渐变_37" y2="202.59" x2="207.08" y1="202.59" x1="202.36" id="未命名的渐变_37-62"></linearGradient><linearGradient xlink:href="#未命名的渐变_37" y2="203.86" x2="208.91" y1="203.86" x1="202.36" id="未命名的渐变_37-63"></linearGradient></defs><g id="图层_2"><g id="图层_1-2"><g id="robot"><path d="M155.75,42.47,221.66,4.55s36.34,12,38,74.06,2.44,83.62,2.44,83.62L185,208Z" class="cls-1"></path><path d="M202.75,103.29v82.29c-7.72,19.74-20.28,23.86-23.13,24.56a5.84,5.84,0,0,1-.59.13l-3.62-27.18-1.13-8.48,5.54-2.29-43.49-25.14c0-38.76-7.89-100.5,19.42-104.71a24.12,24.12,0,0,1,9.05.48c12.31,2.77,20.63,10.09,26.25,18.72C202.76,79.64,202.75,103.29,202.75,103.29Z" class="cls-2"></path><path d="M154.78,42.65,226.47,1.81H236L164.8,43A25.8,25.8,0,0,0,154.78,42.65Z" class="cls-3"></path><polygon points="187.72 57.13 235.96 29.24 245.45 29.84 190.28 60.52 187.72 57.13" class="cls-4"></polygon><polygon points="202.75 185.58 269.17 147.18 269.17 141.7 202.75 180.1 202.75 185.58" class="cls-5"></polygon><polygon points="202.75 108.78 273.92 67.64 278.66 70.38 202.75 114.48 202.75 108.78" class="cls-6"></polygon><path d="M179,84.09v27.43l-33.21-19.2c0-23.21,4.39-33,10.1-35.33,3.73-1.5,8,.22,12.06,3.53C178.13,68.9,179,84.09,179,84.09Z" class="cls-7"></path><path d="M87.81,139c-4.41,17.27-19.33,20.12-19.33,20.12-24.4,4.54-30.47-10.24-31.57-13.85a4.82,4.82,0,0,1-.21-1.41V125.68a5.51,5.51,0,0,1,2.75-4.77l3.6-2.08.42-.25a.68.68,0,0,1,.93.92,12.74,12.74,0,0,0-1.8,7.87c.69,5.94,6.13,10.6,13.08,11.58,10.65,1.51,19-5.48,19-5.48l.52-.56,0,0c6.21-7.08,2-13,.17-15.05a2.89,2.89,0,0,1-.54-.86,2.82,2.82,0,0,1-.19-1,2.74,2.74,0,0,1,4.17-2.34A22,22,0,0,1,84.91,119C88.26,123.37,90.16,129.76,87.81,139Z" class="cls-8"></path><g class="cls-9"><path d="M87.81,139c-4.41,17.27-19.33,20.12-19.33,20.12-24.4,4.54-30.47-10.24-31.57-13.85a4.82,4.82,0,0,1-.21-1.41V128.69c1.32,3.47,5.41,11.66,11.81,13.48,10.66,3,22.53,1.36,30.89-9.31,4.72-6,5.62-10.83,5.51-13.87C88.26,123.37,90.16,129.76,87.81,139Z" class="cls-10"></path></g><path d="M165.54,212.58h0L69.92,159.87l-1.44-.8s-9.74-29.32,25.15-25.6l42.7,13.71Z" class="cls-2"></path><path d="M202.75,103.29v82.29c-7.72,19.74-20.28,23.86-23.13,24.56l4.15-19.07s9.92.86,11.6-35.66,5.36-83-13.61-100c-11-9.89-20.23-12.49-26-12.92a24.12,24.12,0,0,1,9.05.48c12.31,2.77,20.63,10.09,26.25,18.72C202.76,79.64,202.75,103.29,202.75,103.29Z" class="cls-11"></path><path d="M202.75,103.29v82.29C194,208,179,210.27,179,210.27l-3.62-27.18c5-7.85,11.43-21.92,13.11-44.14,2.86-37.92,0-66.27-6.2-74.49a13.3,13.3,0,0,1,8.73-2.79C202.76,79.64,202.75,103.29,202.75,103.29Z" class="cls-12"></path><path d="M141.07,145.54s-8.62-45.49,1-78.46c0,0-7.29,26.86,1.77,35.37s36.49,14,40,30.69a50.56,50.56,0,0,1-3.59,30.5Z" class="cls-13"></path><path d="M137.43,153.08c0-21.18,12.26-29.84,27.24-19.25s27.25,35,27.25,54.26S179.66,216,164.67,207.34,137.43,174.26,137.43,153.08Z" class="cls-14"></path><path d="M151.55,155.41,92.19,134.67s-11.84-1.14-17.54,3.22l83.7,39.46Z" class="cls-15"></path><path d="M165.54,212.58h0L70.79,160.45c-.85-4.51-2.43-13.39,1.86-20.29l74.94,37.19Z" class="cls-16"></path><path d="M132.56,155c0-21.18,12.26-29.84,27.24-19.25s27.25,35,27.25,54.26-12.26,27.92-27.25,19.25S132.56,176.18,132.56,155Z" class="cls-7"></path><path d="M132.56,155c0-21.18,12.26-29.84,27.24-19.25s27.25,35,27.25,54.26-12.26,27.92-27.25,19.25S132.56,176.18,132.56,155Z" class="cls-17"></path><path d="M132.56,155c0-21.18,12.26-29.84,27.24-19.25s27.25,35,27.25,54.26-12.26,27.92-27.25,19.25S132.56,176.18,132.56,155Z" class="cls-18"></path><path d="M81.52,48.83a.73.73,0,0,0,0-1.45.73.73,0,0,0,0,1.45Z" class="cls-19"></path><path d="M209.13,46.94a.73.73,0,0,0,0-1.45.73.73,0,0,0,0,1.45Z" class="cls-20"></path><path d="M167.94,200.86a15.77,15.77,0,0,1-7.85-2.39c-10.85-6.27-19.68-23.88-19.68-39.26,0-10.39,4-16.84,10.52-16.84,2.66,0,5.53,1.08,8.54,3.2,10.88,7.69,19.72,25.31,19.72,39.3C179.19,194.58,174.78,200.86,167.94,200.86Z" class="cls-21"></path><path d="M150.93,141.79V143h0a14.73,14.73,0,0,1,8.21,3.1c5.16,3.64,10,9.71,13.73,17.07s5.74,15.1,5.74,21.75c0,4.77-1.06,8.75-3.08,11.49a9.1,9.1,0,0,1-7.59,3.92,15.3,15.3,0,0,1-7.56-2.31c-5.12-3-10-8.63-13.64-16a52,52,0,0,1-5.75-22.8c0-5.1,1-9.32,2.9-12.21a8.23,8.23,0,0,1,7-4.05v-1.16m0,0c-6.56,0-11.1,6.39-11.1,17.42,0,15.52,9,33.42,20,39.77a16.47,16.47,0,0,0,8.14,2.46c7,0,11.83-6.18,11.83-16.57,0-14.12-9-32-20-39.77-3.18-2.25-6.19-3.31-8.87-3.31Z" class="cls-22"></path><path d="M179,84.09v23L149.21,89.83c0-18.34,2.74-28.33,6.71-32.84,3.73-1.5,8,.22,12.06,3.53C178.13,68.9,179,84.09,179,84.09Z" class="cls-14"></path><path d="M179,84.09v23L149.21,89.83c0-18.34,2.74-28.33,6.71-32.84,3.73-1.5,8,.22,12.06,3.53C178.13,68.9,179,84.09,179,84.09Z" class="cls-23"></path><path d="M81,123.46c-1.22,4.76-5.14,8.8-5.75,9.4,6.21-7.08,2-13,.17-15.05a2.89,2.89,0,0,1-.54-.86,2.82,2.82,0,0,1-.19-1,2.74,2.74,0,0,1,1.66-2.52C78.57,115.81,81.84,120,81,123.46Z" class="cls-24"></path><path d="M44.4,119.5a12.74,12.74,0,0,0-1.8,7.87c-.09-.18-2.15-4.83.45-8.54l.42-.25A.68.68,0,0,1,44.4,119.5Z" class="cls-24"></path><polygon points="145.82 92.32 149.21 89.83 179.03 107.07 179.03 111.52 145.82 92.32" class="cls-25"></polygon><path d="M81,24a1.75,1.75,0,0,0,0-3.49A1.75,1.75,0,0,0,81,24Z" class="cls-26"></path></g><g id="gears"><path d="M167.35,83l-.69-.7a.64.64,0,0,0,0-.07,10.86,10.86,0,0,0,.15-1.18l.86-.3.07,0a.37.37,0,0,0,.13-.36l-.06-1.24a.8.8,0,0,0-.38-.65l-.69-.28a16.65,16.65,0,0,0-.37-2.07l.45-.16.13,0,.07,0a.51.51,0,0,0,.07-.56l-.4-1.27c-.09-.29-.31-.49-.48-.45l-.57.15a20.23,20.23,0,0,0-.91-2l.39-.52a.72.72,0,0,0-.06-.73l-.68-1.08c-.11-.17-.22-.26-.34-.24H164l-.71.24a12,12,0,0,0-1-1.2h0l.15-.8a.87.87,0,0,0-.26-.73L161.3,66A.24.24,0,0,0,161,66l-1.25.43-.45-.21-.12-.94a.71.71,0,0,0-.4-.61l-.84-.21h-.08s-.05,0-.07,0l-1.67.58,0-.06c-.11-.28-.33-.45-.48-.38l-3.15,1.1-.13,1.1-2.14.81.19.74.24,2.2-1.67.62s0,0,0,0l.56,1.11.92,3-1.41.5a0,0,0,0,0,0,0l.37.36.88.47.6,1.28a8.58,8.58,0,0,1-.37-2.4c.17-.7.33-3.89.33-3.89s.87-1.24,1.34-1.77a3.68,3.68,0,0,1,.94-.77h.33a.64.64,0,0,0,0-.07l-.6-.83a1.62,1.62,0,0,1-.1-.18l3.63,1.26c8.43,4.76,5.49,15.45,5.49,15.45l-.42,2.24a5.28,5.28,0,0,1-1-.3l-.32.24c0,.27-.16.4-.36.29l-.55.45a.81.81,0,0,1-.34-.69v-.75a16.21,16.21,0,0,1-1.92-.38,27.1,27.1,0,0,1-3.23-1.58l-.48-.81.66,3.28a.07.07,0,0,0,.1,0l1.28-.5.3-.3s.48.85.53.91,1,2.34,1,2.34l1.58-.67.23-.93,1.19,2.12a.06.06,0,0,0,.07,0l3.24-1.15s1.88-.83,1.93-.88l.59-.57a.67.67,0,0,0,0-.71l-.48-.9,1.64-.57a.26.26,0,0,0,.17-.19l.28-1A.83.83,0,0,0,167.35,83Z" class="cls-27"></path><path d="M157.05,89.35l-.06-.13c-.35-.84-1-2.22-1-2.32s-.24-.4-.45-.76l-.21.2-1.28.5a.22.22,0,0,1-.29-.15l-.83-4.11.43.72.47.78A29.35,29.35,0,0,0,157,85.63a15.68,15.68,0,0,0,1.9.38l.13,0,0,.88a.72.72,0,0,0,.2.49l.54-.43.08,0a.12.12,0,0,0,.08,0,.23.23,0,0,0,.07-.19v-.07l.44-.32.07,0a6.23,6.23,0,0,0,.88.26l.39-2.1c0-.12,2.81-10.65-5.42-15.3l-3.21-1.11.52.72-.09.24h-.39a3.41,3.41,0,0,0-.87.73c-.41.46-1.16,1.52-1.31,1.72,0,.4-.17,3.2-.32,3.87a7.79,7.79,0,0,0,.36,2.33l.33,1.35-1.18-2.48-.87-.48-.43-.42,0-.09a.15.15,0,0,1,.1-.12l1.28-.45-.87-2.82-.58-1.15,0-.14.07,0,1.57-.57-.24-2.1-.21-.84,2.18-.82.13-1.1,3.23-1.13a.32.32,0,0,1,.27,0,.73.73,0,0,1,.36.39l1.54-.54a.24.24,0,0,1,.1,0,.23.23,0,0,1,.14,0l.83.21a.85.85,0,0,1,.52.73l.1.86.33.15,1.2-.41a.41.41,0,0,1,.43.09l.83.71a1,1,0,0,1,.3.87l-.13.72q.47.49.93,1.08L164,69c.13,0,.31,0,.48.31l.68,1.08a.87.87,0,0,1,.06.9l-.34.45c.3.59.58,1.2.83,1.82l.45-.12c.25-.06.53.17.65.54l.4,1.28a.65.65,0,0,1-.12.72.34.34,0,0,1-.12.06l-.14,0-.31.1c.15.64.26,1.27.34,1.88l.61.25a.91.91,0,0,1,.46.77l.07,1.24a.53.53,0,0,1-.21.5l-.11,0-.75.26c0,.39-.09.75-.15,1.09l.63.65a1,1,0,0,1,.25.88l-.28,1a.39.39,0,0,1-.28.29l-1.47.51.41.75a.79.79,0,0,1,0,.88l-.58.58s-.07.06-2,.9l-3.25,1.16a.21.21,0,0,1-.25-.09L159,88l-.16.65Zm2.16-1.6,1,1.79,3.18-1.13c.67-.29,1.8-.8,1.89-.85l.57-.57c.07-.06.08-.3,0-.53l-.56-1,1.8-.63c.05,0,.07-.06.08-.09l.28-1a.72.72,0,0,0-.17-.6l-.74-.75,0-.12c.07-.38.12-.77.16-1.19V81l1-.33.11.11-.07-.12a.27.27,0,0,0,.06-.23l-.07-1.24a.63.63,0,0,0-.28-.52l-.77-.31v-.09a17.18,17.18,0,0,0-.37-2.06l0-.13.72-.23c.06,0,.1-.2,0-.42l-.41-1.27c-.07-.23-.23-.36-.3-.35l-.7.18,0-.12a17.81,17.81,0,0,0-.9-2l0-.08.44-.6a.57.57,0,0,0-.07-.56l-.67-1.09c-.09-.13-.16-.18-.2-.17H164l-.81.28-.06-.08a15.41,15.41,0,0,0-1-1.19l-.06,0,.17-.88a.75.75,0,0,0-.21-.59l-.83-.71a.14.14,0,0,0-.13-.05l-1.33.47-.05,0-.44-.2-.08,0-.13-1a.59.59,0,0,0-.3-.48l-.83-.21h-.07l-1.8.63L156,65a.52.52,0,0,0-.24-.29h-.05l-3.08,1.07-.12,1.09-2.11.8.16.61.26,2.34-1.64.6.49,1,.81,2.58c.12-1.16.22-3.19.23-3.21v0l0,0s.89-1.26,1.35-1.78a3.92,3.92,0,0,1,1-.81l0,0h.16l-.49-.67a1,1,0,0,1-.11-.21l-.13-.29,3.93,1.36c8.46,4.77,5.62,15.52,5.59,15.62l-.44,2.38-.14,0a6,6,0,0,1-1-.29l-.2.15a.45.45,0,0,1-.2.36.32.32,0,0,1-.27,0Zm-3.61-2.08.09.17.52.89a21.45,21.45,0,0,1,1,2.24l1.39-.58.24-1a1.14,1.14,0,0,1-.13-.51l0-.63a13.46,13.46,0,0,1-1.82-.37,26.75,26.75,0,0,1-3.25-1.59l0,0,0,0-.05-.09.48,2.37,1.17-.46ZM149.48,76l.9.49.08.18a4.12,4.12,0,0,1-.1-1.23v0l-1.1.39Z" class="cls-28"></path><path d="M161.47,86.91l.41-2.24.11-.55a4.33,4.33,0,0,1-3.34-1.26,12.59,12.59,0,0,1-3.79-10.75,4.57,4.57,0,0,1,1.53-2.89L152.76,68a1.62,1.62,0,0,0,.1.18l.6.83a.14.14,0,0,1,0,.07h-.33a3.68,3.68,0,0,0-.94.77c-.47.53-1.34,1.77-1.34,1.77s-.16,3.19-.32,3.89.77,3.88.87,4.48a40.09,40.09,0,0,0,2.34,4.24,27.56,27.56,0,0,0,3.22,1.58,16.64,16.64,0,0,0,1.92.38v.75a.83.83,0,0,0,.34.69l.47-.46c.19.1.35,0,.35-.3l.41-.22A5.18,5.18,0,0,0,161.47,86.91Z" class="cls-29"></path><path d="M159.21,87.77l-.09-.06a1,1,0,0,1-.42-.81l0-.63a12,12,0,0,1-1.82-.37,26.75,26.75,0,0,1-3.25-1.59l0,0,0,0A36,36,0,0,1,151.24,80c0-.16-.12-.52-.23-1a13.08,13.08,0,0,1-.65-3.56c.16-.68.32-3.83.33-3.86v0l0,0s.89-1.26,1.35-1.78a3.92,3.92,0,0,1,1-.81l0,0h.16l-.49-.67a1.28,1.28,0,0,1-.11-.2l-.13-.3,4.19,1.45-.21.16a4.44,4.44,0,0,0-1.48,2.8,12.45,12.45,0,0,0,3.74,10.62A4.24,4.24,0,0,0,162,84l.19,0-.58,3.13-.14,0a5.71,5.71,0,0,1-1-.29l-.28.15a.43.43,0,0,1-.2.34.34.34,0,0,1-.26,0ZM159,86l0,.88a.74.74,0,0,0,.19.48l.45-.44.1,0s.05,0,.08,0,.06-.08.06-.18v-.09l.54-.29.06,0a6.23,6.23,0,0,0,.88.26l.46-2.45A4.65,4.65,0,0,1,158.55,83a12.79,12.79,0,0,1-3.84-10.89,5,5,0,0,1,1.39-2.81l-3-1,.52.72-.09.24h-.39a3.41,3.41,0,0,0-.87.73c-.41.46-1.16,1.52-1.31,1.72,0,.4-.17,3.2-.32,3.87a14.87,14.87,0,0,0,.64,3.43c.11.46.21.83.24,1a32.6,32.6,0,0,0,2.29,4.15A29.35,29.35,0,0,0,157,85.63a15.68,15.68,0,0,0,1.9.38Z" class="cls-30"></path><path d="M164.2,84.1l-.68-.7s0-.05,0-.07a11.41,11.41,0,0,0,.19-1.78l.71.29c.19.07.33-.09.32-.37l-.07-1.24a.76.76,0,0,0-.38-.65l-.68-.28a15.63,15.63,0,0,0-.39-2.11l.6-.15c.17-.05.23-.31.14-.6l-.41-1.27c-.09-.29-.3-.49-.47-.45l-.58.15a18.17,18.17,0,0,0-.91-2l.39-.52a.72.72,0,0,0-.06-.73l-.68-1.09c-.15-.24-.37-.31-.49-.16l-.38.52a12.87,12.87,0,0,0-1.29-1.53l.15-.8a.85.85,0,0,0-.25-.73l-.83-.71c-.19-.16-.38-.1-.42.15l-.15.79a7.5,7.5,0,0,0-1.43-.78l-.11-1c0-.28-.22-.56-.41-.6l-.84-.22c-.19,0-.31.15-.28.44l.12,1a4,4,0,0,0-1.3.11l-.37-1c-.11-.28-.33-.45-.49-.38l-.7.32c-.16.08-.2.37-.09.65l.38,1a4.65,4.65,0,0,0-1,1l-.59-.82c-.16-.22-.38-.26-.48-.08l-.44.8a.79.79,0,0,0,.11.74l.61.84a9.39,9.39,0,0,0-.44,1.57.2.2,0,0,1,0,.07l-.72-.51c-.19-.14-.37,0-.39.22l-.12,1.15a.86.86,0,0,0,.31.71l.74.52a15.21,15.21,0,0,0,.12,2l-.73-.07c-.19,0-.29.2-.24.5l.24,1.28c.06.29.25.54.44.56l.75.07a18.32,18.32,0,0,0,.66,2l-.61.43c-.15.1-.17.4,0,.68l.55,1.2c.13.27.35.41.5.31l.61-.43A16.49,16.49,0,0,0,153,84.06l-.36.87a.81.81,0,0,0,.17.74l.77.92c.17.21.38.21.46,0l.36-.87c.21.21.42.41.64.6s.44.36.66.52l0,1.15a.83.83,0,0,0,.34.68l.85.48c.2.1.36,0,.36-.3l0-1.15a4.92,4.92,0,0,0,1.33.34l.31,1.23c.08.29.28.51.46.5l.79-.06c.17,0,.26-.25.18-.55L160,88a3.91,3.91,0,0,0,1.13-.49l.57,1.06c.14.26.36.36.49.23l.59-.57a.67.67,0,0,0,0-.71l-.55-1a5.72,5.72,0,0,0,.73-1.27l.71.72c.18.19.38.16.44-.07l.29-1A.83.83,0,0,0,164.2,84.1ZM155.5,84a12.62,12.62,0,0,1-3.79-10.75c.66-3.58,3.44-4.56,6.2-2.2a12.61,12.61,0,0,1,3.79,10.76C161,85.34,158.26,86.32,155.5,84Z" class="cls-31"></path><path d="M164,84.54l-.69-.7a.64.64,0,0,0,0-.07,12.77,12.77,0,0,0,.18-1.78l.16.07a4.93,4.93,0,0,0,0-.55l.71.29a.2.2,0,0,0,.13,0l-.06-1.14a.8.8,0,0,0-.38-.65l-.69-.28a17.31,17.31,0,0,0-.38-2.11l.28-.07-.09-.41.57-.14a.28.28,0,0,0,0-.13l-.4-1.27c-.09-.29-.31-.49-.48-.45l-.57.15a20.23,20.23,0,0,0-.91-2l.25-.34-.06-.14.27-.36a1.09,1.09,0,0,0-.13-.41L161.08,71c-.15-.25-.37-.32-.49-.17l-.39.52a13.82,13.82,0,0,0-1.28-1.53l.15-.8a.87.87,0,0,0-.26-.73l-.83-.71a.25.25,0,0,0-.28-.07l-.1.54-.09-.06-.1.54a7,7,0,0,0-1.42-.79l-.12-.95a.71.71,0,0,0-.4-.6l-.84-.21h-.09l.12.92h-.25l.06.49a4.06,4.06,0,0,0-1.31.11l-.37-1c-.11-.28-.33-.45-.49-.38l-.65.3a1.33,1.33,0,0,0,0,.19l.38,1a2.83,2.83,0,0,0-.28.23l.09.24a4.38,4.38,0,0,0-.95,1l-.59-.81c-.16-.23-.38-.27-.48-.09l-.31.55a.92.92,0,0,0,.17.52l.6.83a8.76,8.76,0,0,0-.43,1.57.17.17,0,0,0,0,.07l-.08-.06c0,.16-.07.31-.1.47a.17.17,0,0,0,0,.07l-.73-.51a.24.24,0,0,0-.22,0l-.09.94a.84.84,0,0,0,.3.71l.74.52a15,15,0,0,0,.13,2l-.25,0c0,.17,0,.33.06.5l-.74-.07h-.05l.25,1.28c.05.29.24.54.43.56l.75.07a18.48,18.48,0,0,0,.66,2l-.29.2a2.31,2.31,0,0,1,.1.28l-.53.36a1.25,1.25,0,0,0,.07.26l.56,1.2c.12.28.34.41.49.31l.62-.43A14.08,14.08,0,0,0,153,84l-.19.48h0l-.18.44a.86.86,0,0,0,.18.69l.77.92c.17.21.38.21.47,0l.35-.87c.21.21.43.41.65.6s.44.36.66.52l0,1.15a.81.81,0,0,0,.34.69l.85.47a.27.27,0,0,0,.17,0l0-1,.18.07v-.55a5.24,5.24,0,0,0,1.33.35l.31,1.22c.07.29.27.52.45.5l.79,0h0a.13.13,0,0,0,0-.06l-.31-1.21.29-.08-.1-.4a3.66,3.66,0,0,0,1.13-.49l.57,1.06c.14.26.36.36.49.23l.49-.47a1,1,0,0,0-.1-.33l-.56-1c.09-.12.17-.24.25-.37l-.06-.11a5.78,5.78,0,0,0,.73-1.27l.71.72c.13.12.26.15.35.07l.19-.66A.83.83,0,0,0,164,84.54Zm-8.7-.14a12.59,12.59,0,0,1-3.79-10.75,6.79,6.79,0,0,1,.43-1.44c.95-2.77,3.46-3.37,6-1.23a12.61,12.61,0,0,1,3.79,10.75,6.25,6.25,0,0,1-.44,1.44C160.33,85.94,157.82,86.54,155.33,84.4Z" class="cls-32"></path><path d="M159.29,89.92a.76.76,0,0,1-.52-.61l-.28-1.12a5.25,5.25,0,0,1-1.07-.27l0,.94a.49.49,0,0,1-.21.43.38.38,0,0,1-.37,0l-.85-.47a1,1,0,0,1-.41-.81l0-1.08c-.21-.15-.42-.32-.61-.48s-.33-.3-.5-.46l-.27.67a.39.39,0,0,1-.28.24.47.47,0,0,1-.43-.21l-.77-.92a1,1,0,0,1-.19-.89l.32-.79a17.81,17.81,0,0,1-1-1.52l-.48.34a.33.33,0,0,1-.29,0,.73.73,0,0,1-.42-.41l-.55-1.21a.69.69,0,0,1,.09-.85l.51-.36c-.23-.6-.43-1.22-.6-1.84l-.65-.06a.78.78,0,0,1-.56-.67l-.24-1.29a.59.59,0,0,1,.11-.55.3.3,0,0,1,.28-.11l.56,0a15.29,15.29,0,0,1-.11-1.77l-.68-.48a1,1,0,0,1-.36-.84l.11-1.14a.47.47,0,0,1,.23-.39.4.4,0,0,1,.39.06l.54.38a11,11,0,0,1,.38-1.37l-.55-.77a.92.92,0,0,1-.13-.9l.45-.8a.35.35,0,0,1,.28-.19.53.53,0,0,1,.44.26l.47.66a4.79,4.79,0,0,1,.78-.78l-.34-.88c-.14-.36-.07-.72.17-.83l.7-.32a.34.34,0,0,1,.28,0,.81.81,0,0,1,.4.46l.33.84a3.61,3.61,0,0,1,1-.09l-.1-.8a.56.56,0,0,1,.15-.51.31.31,0,0,1,.31-.08l.84.22a.82.82,0,0,1,.51.72l.11.87a7.6,7.6,0,0,1,1.18.64l.11-.58a.44.44,0,0,1,.25-.34.42.42,0,0,1,.41.11l.83.71a1,1,0,0,1,.3.86l-.13.73a12.66,12.66,0,0,1,1.13,1.34l.27-.37a.36.36,0,0,1,.29-.14.61.61,0,0,1,.44.32l.67,1.08a.85.85,0,0,1,.06.89l-.34.45a17.69,17.69,0,0,1,.83,1.83l.45-.12c.25-.06.53.17.65.54l.41,1.27a.79.79,0,0,1,0,.61.36.36,0,0,1-.22.18l-.45.11a18.69,18.69,0,0,1,.34,1.91l.61.24a.91.91,0,0,1,.46.78l.07,1.24a.53.53,0,0,1-.18.48.34.34,0,0,1-.34,0l-.52-.21a9.91,9.91,0,0,1-.18,1.59l.64.64a1.06,1.06,0,0,1,.25.89l-.29,1a.38.38,0,0,1-.27.29.45.45,0,0,1-.42-.16l-.56-.56a6.46,6.46,0,0,1-.6,1l.51,1a.79.79,0,0,1,0,.88l-.59.57a.35.35,0,0,1-.29.1.64.64,0,0,1-.43-.37l-.5-.92a3.61,3.61,0,0,1-.9.39l.27,1.07a.7.7,0,0,1-.06.58.35.35,0,0,1-.26.15l-.78,0A.14.14,0,0,1,159.29,89.92Zm-.57-2,.33,1.32c.06.25.23.4.31.4l.78-.06a0,0,0,0,0,0,0,.44.44,0,0,0,0-.34l-.34-1.35.14,0a3.66,3.66,0,0,0,1.09-.48l.13-.08.64,1.2a.49.49,0,0,0,.22.21h0l.59-.58a.56.56,0,0,0,0-.53l-.6-1.12,0-.07a5.76,5.76,0,0,0,.72-1.24l.08-.2.86.87a.22.22,0,0,0,.14.08s0,0,.06-.09l.29-1a.68.68,0,0,0-.18-.6l-.74-.76,0-.11a11.54,11.54,0,0,0,.19-1.78v-.21l.9.36s.06,0,.06,0,.07-.1.06-.22l-.06-1.24a.66.66,0,0,0-.29-.53l-.76-.31v-.08a17.94,17.94,0,0,0-.39-2.1l0-.14.73-.18a.08.08,0,0,0,0,0,.48.48,0,0,0,0-.38l-.41-1.27c-.07-.24-.23-.37-.3-.35l-.7.18,0-.12a17.87,17.87,0,0,0-.91-2l0-.08.45-.6a.61.61,0,0,0-.07-.57l-.68-1.08a.38.38,0,0,0-.2-.18s0,0-.05,0l-.51.67-.11-.16A13.68,13.68,0,0,0,159,69.45l-.05-.06.16-.87a.68.68,0,0,0-.21-.59l-.83-.71c-.05,0-.1-.06-.12,0s-.05,0-.06.11l-.19,1-.19-.13a6.83,6.83,0,0,0-1.39-.76l-.08,0-.12-1a.61.61,0,0,0-.3-.48l-.84-.22a0,0,0,0,0-.05,0,.32.32,0,0,0-.05.27l.14,1.14-.18,0a4,4,0,0,0-1.26.11l-.12,0-.42-1.08a.52.52,0,0,0-.23-.29h-.06l-.7.33c-.07,0-.11.22,0,.45l.42,1.09-.09.07a4.28,4.28,0,0,0-.92.93l-.12.16-.7-1a.29.29,0,0,0-.19-.14s0,0-.05,0l-.44.8a.64.64,0,0,0,.1.59l.65.9,0,.07a9.15,9.15,0,0,0-.42,1.54L150,72l-.91-.63a.11.11,0,0,0-.1,0s-.06,0-.07.15l-.11,1.14a.72.72,0,0,0,.24.58l.8.56v.08a15.07,15.07,0,0,0,.13,2l0,.18-.92-.09s0,0,0,0a.42.42,0,0,0,0,.31l.24,1.28c.05.26.22.44.31.44l.85.08,0,.1c.18.67.4,1.35.65,2l0,.1-.7.49c-.07,0-.09.27,0,.5l.56,1.21a.41.41,0,0,0,.23.25,0,0,0,0,0,0,0l.75-.52.08.14A15.64,15.64,0,0,0,153.13,84l.05.07-.38.94a.67.67,0,0,0,.14.6l.77.91a.27.27,0,0,0,.16.11s0,0,.06-.06l.44-1.07.15.15a6.87,6.87,0,0,0,.64.59c.21.18.43.35.65.51l.06,0,0,1.23a.66.66,0,0,0,.26.55L157,89a.12.12,0,0,0,.08,0,.23.23,0,0,0,.07-.19l0-1.36.2.08a4.94,4.94,0,0,0,1.29.34Zm-.89-2.58a5.37,5.37,0,0,1-2.42-1.27h0a12.8,12.8,0,0,1-3.84-10.89c.33-1.78,1.18-3,2.41-3.43s2.65,0,4,1.15a12.78,12.78,0,0,1,3.85,10.89c-.34,1.78-1.19,3-2.41,3.44A3.23,3.23,0,0,1,157.83,85.34Zm-2.23-1.49a3.84,3.84,0,0,0,3.74,1.1c1.12-.39,1.91-1.53,2.22-3.21a12.46,12.46,0,0,0-3.74-10.62c-1.3-1.11-2.63-1.5-3.75-1.1a3.88,3.88,0,0,0-2.22,3.21,12.49,12.49,0,0,0,3.75,10.62Z" class="cls-33"></path><polygon points="154.73 65.65 154.64 65.37 156.09 64.87 156.18 65.14 154.73 65.65" class="cls-34"></polygon><polygon points="156.21 67.41 156.12 67.14 159.26 66.04 159.36 66.31 156.21 67.41" class="cls-35"></polygon><polygon points="157.98 67.16 157.88 66.89 159.72 66.25 159.81 66.52 157.98 67.16" class="cls-36"></polygon><polygon points="159.14 69.48 159.05 69.21 162.19 68.11 162.29 68.39 159.14 69.48" class="cls-37"></polygon><polygon points="160.94 70.42 160.84 70.15 163.23 69.31 163.32 69.59 160.94 70.42" class="cls-38"></polygon><polygon points="161.65 73 161.55 72.72 164.7 71.63 164.79 71.9 161.65 73" class="cls-39"></polygon><polygon points="163.14 74.86 163.04 74.58 166.19 73.49 166.28 73.76 163.14 74.86" class="cls-40"></polygon><polygon points="164.02 77.04 163.93 76.76 166.34 75.99 166.43 76.27 164.02 77.04" class="cls-41"></polygon><polygon points="163.67 79.44 163.57 79.17 166.72 78.07 166.81 78.34 163.67 79.44" class="cls-42"></polygon><polygon points="164.73 81.9 164.63 81.63 166.78 80.92 166.88 81.19 164.73 81.9" class="cls-43"></polygon><polygon points="163.57 83.53 163.47 83.26 166.62 82.16 166.71 82.44 163.57 83.53" class="cls-44"></polygon><polygon points="164.13 86.07 164.04 85.8 165.42 85.35 165.51 85.63 164.13 86.07" class="cls-45"></polygon><polygon points="162.28 86.59 162.21 86.31 163.85 85.88 163.93 86.16 162.28 86.59" class="cls-46"></polygon><path d="M178.16,95.59l-.54-.55V95a7,7,0,0,0,.12-.92l.68-.23,0,0a.28.28,0,0,0,.1-.28l-.05-1a.61.61,0,0,0-.29-.51l-.54-.21a13.12,13.12,0,0,0-.29-1.62l.35-.12.11,0s0,0,0,0a.42.42,0,0,0,.06-.44l-.32-1c-.07-.22-.24-.38-.37-.34l-.45.11a15.79,15.79,0,0,0-.71-1.56l.31-.41a.57.57,0,0,0-.05-.57l-.53-.85c-.08-.13-.17-.2-.26-.19h-.07L175,85a9.11,9.11,0,0,0-.81-.94h0l.12-.62a.68.68,0,0,0-.2-.57l-.65-.55c-.08-.07-.16-.09-.22,0l-1,.34a2.72,2.72,0,0,0-.35-.16l-.09-.74a.57.57,0,0,0-.32-.48l-.65-.16h-.06l-.06,0-1.3.45,0,0c-.08-.22-.25-.35-.37-.29l-2.46.85-.1.86-1.67.63.15.58.19,1.72-1.3.48h0l.44.87.71,2.31-1.1.39s0,0,0,0l.28.28.69.37.47,1a6.62,6.62,0,0,1-.29-1.86c.13-.55.26-3,.26-3s.68-1,1-1.38a2.78,2.78,0,0,1,.73-.6h.26l0,0-.47-.65a1,1,0,0,1-.08-.14l2.83,1c6.58,3.71,4.29,12,4.29,12l-.33,1.75a3.56,3.56,0,0,1-.81-.24l-.25.19c0,.21-.13.31-.28.23l-.44.35a.67.67,0,0,1-.26-.54V98a12.16,12.16,0,0,1-1.5-.29,22.24,22.24,0,0,1-2.51-1.24l-.38-.63.52,2.56s0,0,.07,0l1-.39.23-.23s.38.66.42.71.8,1.82.8,1.82l1.23-.52.18-.72.93,1.65s0,0,.05,0l2.54-.89s1.46-.65,1.5-.69l.46-.45a.51.51,0,0,0,0-.55l-.38-.7,1.28-.45a.17.17,0,0,0,.13-.14l.23-.78A.65.65,0,0,0,178.16,95.59Z" class="cls-47"></path><path d="M170.13,100.54l0-.1c-.28-.66-.74-1.73-.79-1.81s-.19-.31-.35-.59l-.16.15-1,.4a.22.22,0,0,1-.14,0,.18.18,0,0,1-.09-.12l-.65-3.2.34.56c.18.31.32.53.37.61a22.68,22.68,0,0,0,2.46,1.21,13.93,13.93,0,0,0,1.49.29l.09,0v.68a.59.59,0,0,0,.15.39l.43-.34.06,0s.05,0,.06,0,0-.06,0-.15v0l.34-.25.06,0a4.11,4.11,0,0,0,.68.21l.3-1.64c0-.09,2.2-8.31-4.23-11.93l-2.5-.87.41.56-.07.19h-.31a3.29,3.29,0,0,0-.68.57c-.32.36-.9,1.18-1,1.34,0,.31-.14,2.5-.26,3a6.23,6.23,0,0,0,.29,1.82l.25,1-.92-1.94-.68-.37-.33-.32V89.9a.12.12,0,0,1,.08-.09l1-.35-.68-2.2-.45-.9,0-.11.06,0,1.22-.45-.18-1.63-.17-.66,1.7-.64.1-.86,2.52-.88a.26.26,0,0,1,.21,0,.59.59,0,0,1,.28.3l1.21-.41.07,0h.11l.65.16a.65.65,0,0,1,.4.57l.08.68.26.11.93-.32a.31.31,0,0,1,.34.07l.64.55a.79.79,0,0,1,.24.68l-.1.57a8.75,8.75,0,0,1,.72.84l.56-.19c.1,0,.24,0,.38.24l.52.85a.65.65,0,0,1,.05.69l-.27.36a14,14,0,0,1,.65,1.42l.35-.09c.2,0,.41.13.51.42l.31,1a.51.51,0,0,1-.09.56.19.19,0,0,1-.1,0l-.1,0-.25.08a13,13,0,0,1,.27,1.47l.47.19a.73.73,0,0,1,.37.6l0,1a.4.4,0,0,1-.17.39l-.08,0-.59.2c0,.3-.06.59-.11.85l.49.51a.74.74,0,0,1,.19.69l-.22.77a.28.28,0,0,1-.21.22l-1.15.4.32.59a.61.61,0,0,1,0,.68l-.46.45a13.94,13.94,0,0,1-1.54.71l-2.54.9a.14.14,0,0,1-.19-.07l-.79-1.4-.12.5Zm1.69-1.25.78,1.4,2.48-.88c.52-.23,1.4-.62,1.47-.67l.45-.44a.43.43,0,0,0,0-.41l-.44-.82,1.41-.49a.09.09,0,0,0,.05-.07l.23-.78a.54.54,0,0,0-.14-.46l-.58-.59,0-.09a9.08,9.08,0,0,0,.12-.93V94l.74-.26.09.09-.06-.1s.06-.08.05-.18l-.05-1a.51.51,0,0,0-.22-.41l-.6-.24v-.07a13.3,13.3,0,0,0-.29-1.61l0-.1.56-.18s.08-.16,0-.32l-.32-1c-.06-.19-.18-.29-.23-.28l-.55.14,0-.09a14.4,14.4,0,0,0-.7-1.55l0-.07.35-.46a.49.49,0,0,0-.06-.44l-.53-.85c-.06-.1-.12-.14-.15-.13h0l-.63.21-.05-.06a10.74,10.74,0,0,0-.8-.93l0,0,.13-.68A.58.58,0,0,0,174,83l-.65-.55s-.08,0-.1,0l-1,.36,0,0-.34-.16-.06,0-.1-.81c0-.19-.14-.36-.24-.38l-.65-.16h-.05l-1.41.49-.05-.15a.41.41,0,0,0-.18-.23h-.05l-2.39.84-.1.85-1.64.62.12.48.2,1.82L164,86.4l.39.77.62,2c.1-.9.18-2.48.18-2.5v0l0,0s.69-1,1-1.39a3.11,3.11,0,0,1,.77-.63h.14l-.37-.52a.51.51,0,0,1-.09-.16l-.1-.23,3.07,1.06c6.59,3.72,4.38,12.1,4.35,12.19l-.34,1.85-.11,0a4.56,4.56,0,0,1-.78-.22l-.15.12a.39.39,0,0,1-.16.28.31.31,0,0,1-.21,0ZM169,97.67l.07.13c.17.31.37.65.4.69s.05.06.78,1.75l1.08-.45.19-.76a.72.72,0,0,1-.1-.4v-.49a9.57,9.57,0,0,1-1.42-.29,20.19,20.19,0,0,1-2.54-1.24h0l0,0,0-.07.37,1.85.91-.36Zm-4.78-7.54.7.38.07.14a2.83,2.83,0,0,1-.08-1v0l-.86.3Z" class="cls-48"></path><path d="M173.57,98.64l.33-1.75.08-.43a3.38,3.38,0,0,1-2.61-1,9.83,9.83,0,0,1-3-8.39,3.56,3.56,0,0,1,1.19-2.25l-2.83-1a.57.57,0,0,0,.08.13l.47.66,0,0h-.26a2.78,2.78,0,0,0-.73.6c-.36.41-1,1.38-1,1.38s-.13,2.49-.26,3a20.15,20.15,0,0,0,.69,3.49,30,30,0,0,0,1.82,3.3A21,21,0,0,0,170,97.74a10.08,10.08,0,0,0,1.5.3v.59a.61.61,0,0,0,.26.53l.37-.35c.15.08.27,0,.28-.24l.31-.17A4.45,4.45,0,0,0,173.57,98.64Z" class="cls-49"></path><path d="M171.81,99.3l-.07,0a.72.72,0,0,1-.32-.63v-.49a9.57,9.57,0,0,1-1.42-.29,20.19,20.19,0,0,1-2.54-1.24h0l0,0a27,27,0,0,1-1.83-3.34c0-.13-.1-.41-.19-.76a10.35,10.35,0,0,1-.5-2.78c.12-.53.25-3,.25-3v0l0,0s.69-1,1.06-1.39a3,3,0,0,1,.76-.63h.14l-.37-.52a.51.51,0,0,1-.09-.16l-.1-.23,3.26,1.13-.16.13a3.48,3.48,0,0,0-1.15,2.18,9.72,9.72,0,0,0,2.92,8.28,3.27,3.27,0,0,0,2.51,1l.15,0-.45,2.44-.11,0a4.66,4.66,0,0,1-.79-.22l-.21.11a.37.37,0,0,1-.16.27.28.28,0,0,1-.2,0ZM171.66,98l0,.68a.55.55,0,0,0,.15.38l.35-.34.07,0a.09.09,0,0,0,.07,0,.28.28,0,0,0,.05-.15v-.06l.42-.23.05,0a4.11,4.11,0,0,0,.68.21l.36-1.92a3.63,3.63,0,0,1-2.54-1,10,10,0,0,1-3-8.5,3.86,3.86,0,0,1,1.09-2.19l-2.34-.81.41.56-.07.19h-.31a3.29,3.29,0,0,0-.68.57c-.32.36-.9,1.18-1,1.34,0,.31-.14,2.5-.26,3a11.79,11.79,0,0,0,.5,2.67c.09.36.17.65.19.78a24.06,24.06,0,0,0,1.79,3.24,22.68,22.68,0,0,0,2.46,1.21,13.93,13.93,0,0,0,1.49.29Z" class="cls-50"></path><path d="M175.71,96.44l-.54-.54v-.05a10.55,10.55,0,0,0,.15-1.39l.55.22c.15.06.26-.07.25-.29l0-1a.61.61,0,0,0-.29-.51l-.54-.22a13.47,13.47,0,0,0-.3-1.64l.46-.12c.14,0,.18-.25.11-.47l-.31-1c-.08-.23-.24-.38-.37-.35l-.45.12a16,16,0,0,0-.71-1.57l.3-.41a.57.57,0,0,0,0-.57l-.52-.84c-.12-.19-.29-.25-.39-.13l-.3.41a9.09,9.09,0,0,0-1-1.2l.12-.62a.7.7,0,0,0-.2-.57l-.65-.56c-.15-.12-.29-.07-.33.12l-.11.62a6.17,6.17,0,0,0-1.11-.61l-.09-.74a.57.57,0,0,0-.32-.47l-.65-.17c-.15,0-.25.12-.22.34l.09.75a2.88,2.88,0,0,0-1,.09l-.29-.75c-.08-.22-.25-.35-.38-.3l-.54.26c-.13,0-.16.28-.08.5l.3.76a3.82,3.82,0,0,0-.74.76l-.46-.64c-.13-.17-.3-.2-.38-.06l-.34.62a.6.6,0,0,0,.09.58l.47.65a6.86,6.86,0,0,0-.34,1.23.07.07,0,0,0,0,0l-.56-.4c-.15-.1-.29,0-.31.18l-.09.89a.65.65,0,0,0,.24.55l.58.41a11.76,11.76,0,0,0,.09,1.56l-.57,0c-.15,0-.23.16-.18.38l.18,1c.05.22.2.42.34.43l.59.06a14.37,14.37,0,0,0,.51,1.57l-.47.33c-.12.08-.13.32,0,.53l.43.94c.1.22.27.32.38.24l.48-.33a12.53,12.53,0,0,0,.84,1.33l-.27.68a.61.61,0,0,0,.13.58l.59.72c.14.16.3.16.37,0l.27-.68c.17.17.34.32.51.47s.34.28.51.41v.9a.61.61,0,0,0,.26.53l.67.37c.15.08.27,0,.28-.23v-.9a4.21,4.21,0,0,0,1,.27l.24,1c.06.23.22.41.36.4l.61,0c.14,0,.2-.2.15-.43l-.24-.94a2.86,2.86,0,0,0,.88-.38l.44.82c.11.21.28.29.39.19l.46-.45a.54.54,0,0,0,0-.55l-.44-.81a4.28,4.28,0,0,0,.57-1l.55.56c.15.15.3.12.35-.06l.22-.77A.67.67,0,0,0,175.71,96.44Zm-6.79-.1A9.85,9.85,0,0,1,166,88c.52-2.79,2.69-3.55,4.84-1.71a9.87,9.87,0,0,1,3,8.39C173.24,97.41,171.07,98.18,168.92,96.34Z" class="cls-51"></path><path d="M175.57,96.79l-.53-.55v0a9,9,0,0,0,.14-1.39l.13,0c0-.14,0-.28,0-.42l.55.22a.12.12,0,0,0,.1,0l-.05-.89a.62.62,0,0,0-.29-.51l-.54-.21a11.93,11.93,0,0,0-.3-1.65l.23-.06c0-.1,0-.21-.08-.31l.45-.12s0-.06,0-.1l-.32-1c-.07-.22-.24-.38-.37-.34l-.45.11a13.77,13.77,0,0,0-.71-1.56l.2-.27-.05-.11.21-.28a.75.75,0,0,0-.1-.32l-.53-.85c-.12-.19-.29-.25-.38-.12l-.3.4a13.24,13.24,0,0,0-1-1.2l.11-.62a.65.65,0,0,0-.2-.57l-.65-.55a.2.2,0,0,0-.21-.06l-.08.42-.07,0-.08.42a5.34,5.34,0,0,0-1.11-.61l-.09-.74a.57.57,0,0,0-.32-.48l-.65-.16a.09.09,0,0,0-.07,0l.09.71h-.19l0,.38a3.07,3.07,0,0,0-1,.08l-.29-.75c-.09-.22-.26-.35-.38-.29l-.51.23a.42.42,0,0,0,0,.15l.29.77a1.74,1.74,0,0,0-.22.18l.08.19a3.33,3.33,0,0,0-.75.75l-.46-.63c-.13-.18-.29-.21-.37-.07l-.24.43a.66.66,0,0,0,.13.4l.47.66a6.75,6.75,0,0,0-.34,1.22s0,0,0,0l-.06,0c0,.12-.06.24-.08.36a.13.13,0,0,1,0,.06l-.56-.4a.23.23,0,0,0-.17,0l-.08.73a.68.68,0,0,0,.24.56l.58.4a11.76,11.76,0,0,0,.09,1.56h-.19c0,.13,0,.26,0,.39l-.58-.06h0l.18,1c.05.22.2.42.34.43l.59.06a15.28,15.28,0,0,0,.51,1.58l-.22.15c0,.08.05.15.08.22l-.42.29a.89.89,0,0,0,.06.2l.43.94c.1.21.27.32.39.24l.48-.34a12,12,0,0,0,.83,1.34l-.15.37h0l-.14.34a.62.62,0,0,0,.14.54l.6.72c.13.16.29.16.36,0l.28-.68a5.47,5.47,0,0,0,.5.47c.17.15.34.28.52.41l0,.9a.61.61,0,0,0,.26.53l.67.37a.16.16,0,0,0,.13,0l0-.77.14,0v-.43a4.21,4.21,0,0,0,1,.27l.24,1c.06.23.22.41.36.4l.61,0h0a.09.09,0,0,0,0,0l-.24-.94.23-.07-.08-.3a2.89,2.89,0,0,0,.88-.39l.44.83c.11.2.28.28.39.18l.37-.37a.68.68,0,0,0-.07-.26l-.44-.8a3,3,0,0,0,.2-.29l-.05-.09a4.28,4.28,0,0,0,.57-1l.55.56c.1.1.21.12.28.06l.15-.51A.67.67,0,0,0,175.57,96.79Zm-6.79-.11a9.83,9.83,0,0,1-2.95-8.39,4.46,4.46,0,0,1,.34-1.12c.74-2.16,2.69-2.63,4.64-1a9.84,9.84,0,0,1,3,8.39,5.47,5.47,0,0,1-.34,1.12C172.69,97.88,170.73,98.35,168.78,96.68Z" class="cls-52"></path><path d="M171.87,101a.6.6,0,0,1-.4-.47l-.22-.88a4.3,4.3,0,0,1-.84-.21v.74a.38.38,0,0,1-.16.33.3.3,0,0,1-.29,0l-.66-.37a.76.76,0,0,1-.33-.64l0-.84-.48-.37-.39-.36-.21.52a.28.28,0,0,1-.22.19.37.37,0,0,1-.33-.16l-.6-.72a.72.72,0,0,1-.15-.69l.25-.62a12.62,12.62,0,0,1-.74-1.19l-.38.27a.27.27,0,0,1-.23,0,.51.51,0,0,1-.32-.32l-.43-.94a.55.55,0,0,1,.06-.67l.4-.28c-.17-.47-.33-1-.46-1.43l-.51-.05a.62.62,0,0,1-.44-.52l-.19-1a.5.5,0,0,1,.09-.43.25.25,0,0,1,.22-.08l.43,0a13.07,13.07,0,0,1-.08-1.38l-.53-.37a.8.8,0,0,1-.28-.66l.09-.89a.33.33,0,0,1,.18-.3.28.28,0,0,1,.3,0l.42.3a7.92,7.92,0,0,1,.3-1.07l-.44-.6a.73.73,0,0,1-.09-.7l.35-.63a.27.27,0,0,1,.22-.15.43.43,0,0,1,.34.21l.37.51a3.46,3.46,0,0,1,.61-.6l-.27-.69c-.11-.29-.06-.56.13-.65l.55-.25a.28.28,0,0,1,.22,0,.6.6,0,0,1,.31.36l.25.65a3.17,3.17,0,0,1,.82-.07l-.07-.62a.43.43,0,0,1,.11-.4.26.26,0,0,1,.24-.06l.66.17a.66.66,0,0,1,.4.57l.08.67a6,6,0,0,1,.93.5l.08-.45a.36.36,0,0,1,.2-.27.32.32,0,0,1,.31.09l.65.55a.78.78,0,0,1,.24.68l-.11.56a11.22,11.22,0,0,1,.88,1l.21-.28a.3.3,0,0,1,.23-.11.46.46,0,0,1,.34.25l.53.84a.64.64,0,0,1,0,.7l-.26.35a15.12,15.12,0,0,1,.65,1.42l.35-.09c.19,0,.41.13.5.42l.32,1a.65.65,0,0,1,0,.48.34.34,0,0,1-.18.14l-.35.09c.11.5.2,1,.26,1.48l.48.19a.72.72,0,0,1,.36.61l.05,1a.41.41,0,0,1-.14.37.27.27,0,0,1-.26,0l-.4-.16a9.56,9.56,0,0,1-.15,1.24l.5.5a.78.78,0,0,1,.19.69l-.22.78a.31.31,0,0,1-.21.22.35.35,0,0,1-.33-.12l-.43-.44a4.84,4.84,0,0,1-.48.8l.4.74a.59.59,0,0,1,0,.69l-.45.45a.29.29,0,0,1-.23.07.51.51,0,0,1-.34-.28l-.38-.72a3.28,3.28,0,0,1-.7.3l.21.83a.58.58,0,0,1-.06.46.21.21,0,0,1-.19.11l-.62,0Zm-.44-1.55.26,1c.05.2.17.32.24.31l.61,0s0,0,0,0a.36.36,0,0,0,0-.27l-.27-1.05.11,0a2.78,2.78,0,0,0,.85-.37l.1-.06.5.93a.37.37,0,0,0,.17.17h0l.45-.45c.06,0,.07-.24,0-.42l-.46-.87,0-.06a4.94,4.94,0,0,0,.56-1l.06-.16.67.68c.05,0,.09.07.11.06s0,0,0-.07l.22-.77a.56.56,0,0,0-.13-.47l-.58-.59,0-.08a9,9,0,0,0,.14-1.4v-.16l.7.29a.07.07,0,0,0,.05,0s.05-.08.05-.18l-.05-1a.49.49,0,0,0-.23-.4l-.6-.25v-.06a16.2,16.2,0,0,0-.3-1.64l0-.11.57-.14s0,0,0,0a.44.44,0,0,0,0-.3l-.31-1c-.06-.18-.18-.28-.24-.27l-.54.14,0-.09a15.5,15.5,0,0,0-.7-1.56l0-.06.35-.47a.45.45,0,0,0,0-.44l-.53-.84c-.06-.09-.12-.14-.16-.14s0,0,0,0l-.39.53-.09-.13a10.64,10.64,0,0,0-1-1.18l0,0,.13-.68a.59.59,0,0,0-.17-.47l-.64-.55s-.08,0-.1,0,0,0,0,.09l-.15.79-.14-.09a4.71,4.71,0,0,0-1.09-.6l-.06,0-.1-.8a.46.46,0,0,0-.23-.38l-.65-.17h0a.27.27,0,0,0,0,.21l.11.89h-.14a2.9,2.9,0,0,0-1,.08l-.1,0-.32-.84a.42.42,0,0,0-.19-.23s0,0,0,0l-.55.25c-.05,0-.08.18,0,.36l.33.85-.07,0a3.12,3.12,0,0,0-.72.73l-.1.12-.54-.76a.24.24,0,0,0-.15-.11s0,0,0,0l-.35.63a.5.5,0,0,0,.09.46l.5.7,0,.06a7,7,0,0,0-.33,1.2l0,.23-.71-.5-.08,0s0,0,0,.12l-.09.89a.59.59,0,0,0,.19.45l.63.44v.06a13.82,13.82,0,0,0,.09,1.55l0,.14L163.9,90h0a.29.29,0,0,0,0,.24l.18,1c0,.19.17.34.24.34l.67.06,0,.08a14.94,14.94,0,0,0,.51,1.56l0,.09-.55.38c-.05,0-.07.2,0,.39l.43.94a.4.4,0,0,0,.18.2h0l.58-.4.06.11a15.59,15.59,0,0,0,.83,1.32l0,.05-.3.73a.53.53,0,0,0,.11.47l.6.71a.18.18,0,0,0,.13.09.1.1,0,0,0,0-.05l.34-.84.12.12c.17.17.34.33.5.47a4.91,4.91,0,0,0,.51.39l.05,0,0,1a.52.52,0,0,0,.21.43l.66.37a.07.07,0,0,0,.06,0s0-.06,0-.15l0-1.06.15.07a4.3,4.3,0,0,0,1,.26Zm-.69-2a4.18,4.18,0,0,1-1.89-1h0a10,10,0,0,1-3-8.49,3.25,3.25,0,0,1,1.88-2.68,3.21,3.21,0,0,1,3.14.9,10,10,0,0,1,3,8.5A3.22,3.22,0,0,1,172,97.32,2.4,2.4,0,0,1,170.74,97.41ZM169,96.25a2.6,2.6,0,0,0,4.66-1.65,9.72,9.72,0,0,0-2.93-8.28A2.6,2.6,0,0,0,166.07,88,9.73,9.73,0,0,0,169,96.25Z" class="cls-53"></path><polygon points="168.32 82.05 168.25 81.84 169.37 81.45 169.45 81.66 168.32 82.05" class="cls-54"></polygon><polygon points="169.47 83.43 169.4 83.22 171.85 82.36 171.93 82.57 169.47 83.43" class="cls-55"></polygon><polygon points="170.85 83.23 170.78 83.02 172.21 82.52 172.28 82.73 170.85 83.23" class="cls-56"></polygon><polygon points="171.76 85.05 171.68 84.83 174.14 83.98 174.21 84.19 171.76 85.05" class="cls-57"></polygon><polygon points="173.16 85.78 173.08 85.56 174.94 84.92 175.02 85.13 173.16 85.78" class="cls-58"></polygon><polygon points="173.71 87.79 173.64 87.57 176.09 86.72 176.17 86.93 173.71 87.79" class="cls-59"></polygon><polygon points="174.87 89.24 174.8 89.03 177.25 88.17 177.33 88.38 174.87 89.24" class="cls-60"></polygon><polygon points="175.56 90.94 175.49 90.72 177.38 90.12 177.44 90.34 175.56 90.94" class="cls-61"></polygon><polygon points="175.29 92.81 175.21 92.6 177.67 91.74 177.74 91.95 175.29 92.81" class="cls-62"></polygon><polygon points="176.11 94.73 176.04 94.52 177.72 93.96 177.79 94.18 176.11 94.73" class="cls-63"></polygon><polygon points="175.21 96 175.13 95.79 177.59 94.93 177.66 95.15 175.21 96" class="cls-64"></polygon><polygon points="175.64 97.98 175.58 97.77 176.66 97.42 176.72 97.64 175.64 97.98" class="cls-65"></polygon><polygon points="174.21 98.39 174.15 98.17 175.43 97.83 175.49 98.05 174.21 98.39" class="cls-66"></polygon></g><g id="sideelement"><g class="cls-67"><path d="M68.21,76.26l-49.87,29a2.85,2.85,0,0,1-4.28-2.44L14,87.36a2.82,2.82,0,0,1,1.41-2.47l49.88-29a2.84,2.84,0,0,1,4.27,2.45l.06,15.5A2.82,2.82,0,0,1,68.21,76.26Z" class="cls-2"></path></g><g class="cls-67"><path d="M129.9,52.09,80,81.13a2.84,2.84,0,0,1-4.27-2.45l-.07-15.5a2.83,2.83,0,0,1,1.41-2.47l49.88-29a2.84,2.84,0,0,1,4.27,2.45l.07,15.49A2.88,2.88,0,0,1,129.9,52.09Z" class="cls-2"></path></g><g class="cls-67"><path d="M134.44,20.81l-49.87,29A2.84,2.84,0,0,1,80.3,47.4l-.07-15.49a2.84,2.84,0,0,1,1.41-2.48l49.88-29a2.84,2.84,0,0,1,4.27,2.45l.07,15.49A2.87,2.87,0,0,1,134.44,20.81Z" class="cls-2"></path></g></g><g id="shadow"><path d="M11.27,200.27c-10.2-5.62-10.29-14.86-.22-20.55s26.3-5.73,36.06-.1,9.86,14.87.22,20.54S21.46,205.89,11.27,200.27Z" class="cls-68"></path></g><g id="stand"><path d="M153.58,222l-45-26.44a1.46,1.46,0,0,1,0-2.51L119.14,187a3.16,3.16,0,0,1,3.15,0l39.59,22.89Z" class="cls-68"></path><path d="M153.58,222l-45-26.44a1.46,1.46,0,0,1,0-2.51L119.14,187a3.16,3.16,0,0,1,3.15,0l39.59,22.89Z" class="cls-69"></path><path d="M168.28,186.13v27.25L153.58,222V194.11a9,9,0,0,0-1.69-6.21,7.89,7.89,0,0,0-2.27-2l-41-23.44a1.27,1.27,0,0,1,0-2.22l10.94-6.09a3.3,3.3,0,0,1,3.22,0l41.09,23.07a7.88,7.88,0,0,1,3.47,3.94A12,12,0,0,1,168.28,186.13Z" class="cls-22"></path><path d="M168.28,186.13v27.25L153.58,222V194.11a9,9,0,0,0-1.69-6.21l15.43-6.69A12,12,0,0,1,168.28,186.13Z" class="cls-70"></path></g><g id="gearbox"><path d="M70.73,156.65l-11.46,6.62a2.85,2.85,0,0,0-1.42,2.47v5.14a2.85,2.85,0,0,0,1.27,2.37l11.41,7.56a2.86,2.86,0,0,0,3,.1l11.66-6.68a2.85,2.85,0,0,0,1.44-2.47v-5.19a2.88,2.88,0,0,0-1.31-2.4l-11.62-7.45A2.82,2.82,0,0,0,70.73,156.65Z" class="cls-22"></path><path d="M70.73,156.65l-11.46,6.62a2.85,2.85,0,0,0-1.42,2.47v5.14a2.85,2.85,0,0,0,1.27,2.37l11.41,7.56a2.86,2.86,0,0,0,3,.1l11.66-6.68a2.85,2.85,0,0,0,1.44-2.47v-5.19a2.88,2.88,0,0,0-1.31-2.4l-11.62-7.45A2.82,2.82,0,0,0,70.73,156.65Z" class="cls-71"></path><path d="M61,163l10.48-6.06a1.42,1.42,0,0,1,1.46,0l10.55,6.78a1.4,1.4,0,0,1-.06,2.4l-10.48,6a1.4,1.4,0,0,1-1.45,0L61,165.37A1.4,1.4,0,0,1,61,163Z" class="cls-22"></path><path d="M61.59,163l9.93-5.69a1.32,1.32,0,0,1,1.38,0l10,6.36a1.32,1.32,0,0,1-.06,2.26l-9.93,5.61a1.35,1.35,0,0,1-1.37,0l-10-6.28A1.32,1.32,0,0,1,61.59,163Z" class="cls-72"></path><path d="M64.51,167.12l7.72-4.51,7.63,5,3-1.69s1.19-.54,1.06-1.18l-.14-.64-11.11-7.2s-.13-.36-2,.7-9.6,5.54-9.6,5.54a1.4,1.4,0,0,0,0,2A11.4,11.4,0,0,0,64.51,167.12Z" class="cls-73"></path><polygon points="71.08 161.41 71.08 160.63 71.08 161.35 71.08 162.12 71.08 161.41" class="cls-74"></polygon><polygon points="78.21 162.34 77.27 162.89 77.27 163.61 78.21 163.06 78.21 162.34" class="cls-75"></polygon><polygon points="67.23 162.89 66.28 162.34 66.28 163.06 67.23 163.61 67.23 162.89" class="cls-76"></polygon><path d="M69.24,165.38a.24.24,0,0,0,0-.08l0-.09,0-.07a1,1,0,0,1,0-.1l0-.07a.61.61,0,0,1,.07-.1l0-.06a.81.81,0,0,1,.12-.14l0,0,.1-.08.08-.07.11-.07.12-.07.28-.15.09,0,.24-.09.08,0L71,164l.12,0,.17,0,.11,0,.35,0h1l.15,0H73l.16,0,.12,0,.19,0,.1,0a3.19,3.19,0,0,1,.33.11l.15.07.08,0,.22.12a1.52,1.52,0,0,1,.9,1.25v-.72a1.52,1.52,0,0,0-.89-1.25l-.23-.12-.08,0L74,163.4h0l-.32-.11h-.11l-.19,0h0l-.07,0-.16,0-.07,0H72.9l-.15,0h-1l-.35,0h0l-.1,0-.17,0-.12,0-.15.05h0l0,0a1.17,1.17,0,0,0-.24.09l-.09,0-.28.15,0,0-.08.05-.11.08-.08.06a.73.73,0,0,0-.09.08l0,0,0,0a.86.86,0,0,0-.13.14l0,0,0,0a.41.41,0,0,0-.07.11l0,0v0s0,.07-.05.1,0,0,0,.05v0a.29.29,0,0,0,0,.09.14.14,0,0,0,0,.06v0s0,.06,0,.09v.72A.28.28,0,0,0,69.24,165.38Z" class="cls-77"></path><path d="M78.21,165.52s0,.09,0,.13l0,.09,0,.08,0,.09A.56.56,0,0,0,78,166l-.06.1-.05.07a.61.61,0,0,1-.07.1l0,.07-.16.18,0,0-.16.15a.74.74,0,0,1-.13.12v.72l.11-.1,0,0,.16-.15,0,0,.16-.18v0l0-.05.07-.1.05-.07.06-.1a.08.08,0,0,0,0,0l0,0,0-.09,0-.08a.36.36,0,0,1,0-.09v0l0-.09h1.34v-.72Z" class="cls-78"></path><path d="M67.25,167.53v-.72a2.85,2.85,0,0,1-.93-1.29H65v.72h1.34A2.85,2.85,0,0,0,67.25,167.53Z" class="cls-79"></path><path d="M75.66,167.76c-.16.07-.33.12-.49.18l-.29.08-.26.07-.3.06-.27.06a6.17,6.17,0,0,1-.62.09V169l.62-.09h0l.24,0,.29-.06.27-.07.28-.08h0l.46-.17,1,.55,1.63-.95v-.72l-1.63.95Z" class="cls-80"></path><path d="M71.12,168.3l-.43-.06-.31-.06-.26-.05-.36-.09-.28-.07-.12,0-.47-.17h0l-.94.55-1.65-.94v.71l1.64.95,1-.55.47.17.12,0,.12,0,.16,0,.36.09.11,0,.15,0,.31.06.14,0,.29,0h0v.77h2.32v-.71H71.13Z" class="cls-81"></path><path d="M76.61,168.31l-1-.55a8.77,8.77,0,0,1-2.23.54v.78H71.13v-.78a9,9,0,0,1-2.23-.54l-1,.55-1.64-.95,1-.55a2.85,2.85,0,0,1-.93-1.29H65v-1.34h1.34a3,3,0,0,1,.92-1.29l-1-.55,1.63-1,1,.55a8.8,8.8,0,0,1,2.22-.54v-.77h2.31v.77a9,9,0,0,1,2.23.54l.94-.55,1.64,1-.94.55a3.13,3.13,0,0,1,.93,1.29h1.34v1.34H78.21a2.9,2.9,0,0,1-.92,1.29l.95.55Zm-6.49-2.21a4.73,4.73,0,0,0,4.29,0,1.31,1.31,0,0,0,0-2.48,4.7,4.7,0,0,0-4.29,0,1.32,1.32,0,0,0,0,2.49" class="cls-82"></path></g><g id="boy"><rect transform="translate(-12.96 43.66) rotate(-15.2)" height="6.35" width="1.46" y="67.24" x="156.45" class="cls-22"></rect><path d="M156.71,65.13a1.78,1.78,0,0,1,1.21,1.24,1.77,1.77,0,1,1-3-.76l.26,1,.14.51.51.14.52.13.37-.37.38-.38L157,66.1Z" class="cls-83"></path><path d="M155.44,75.2s-.83-2.65-.49-3,.7-.16.84-.92.65-.14.62.68c0,0,1.43-1.37,2.11-1.44s.14.38.38,1a9.87,9.87,0,0,1,.87,3c0,.87-1,2.56-1.91,2.28A9.54,9.54,0,0,1,155.44,75.2Z" class="cls-84"></path><path d="M135.5,61.59V70a3.77,3.77,0,0,1-2.83,3,13.82,13.82,0,0,1-1.56.34h0v3.24a5.33,5.33,0,0,1-3.9-.48c-1.3-.87-1.48-1.83-1.19-3.36a6.19,6.19,0,0,1-3-4.36C121.56,62.15,133,44.61,135.5,61.59Z" class="cls-84"></path><path d="M124.59,74.19s-7.54-1.79-11,8.64c0,0-3.65,7.62-2.64,10.88S117.7,97,117.7,97Z" class="cls-22"></path><path d="M124.59,74.19,117.7,97a12.51,12.51,0,0,1-1.58-.13,9.88,9.88,0,0,1-2.83-.78A4,4,0,0,1,111,93.71c-1-3.26,2.64-10.88,2.64-10.88C117.05,72.4,124.59,74.19,124.59,74.19Z" class="cls-22"></path><path d="M116.12,96.84a9.88,9.88,0,0,1-2.83-.78c-1-1.17-.21-3.77,0-4.63.74-3,1.62-11.72,5.79-14.74C122.71,74,117.51,92.17,116.12,96.84Z" class="cls-85"></path><path d="M114.09,106.21s-.76,9.44.8,17,3,19.85,3,19.85a6.62,6.62,0,0,1,0,3c-.36,1.82-1.92,10.58-1.92,10.58a3.52,3.52,0,0,0,3.38,2.29,4.62,4.62,0,0,0,3.64-1.75s3.85-15.61,3.46-18.11-1.47-16-1.19-17.92S117.12,106.85,114.09,106.21Z" class="cls-86"></path><path d="M134,162.31s4.34-3.4,6.6-2c2.74,1.63,2.6,2.51-.28,4.68C137.56,167,123.35,169.92,134,162.31Z" class="cls-86"></path><path d="M140.57,148.44c-1.51,6.56-3.36,15.46-3.36,15.46s-1.54,3.79-4.36,3l-2-.59-.78-.22s.82-19.1,1.73-23c0,0-7.29-17.14-8.93-23.16a58.31,58.31,0,0,0-3.11-8.6h0c-.62-1.38-1-2.19-1-2.19l18.4,2.19L141,136.85A28.66,28.66,0,0,1,140.57,148.44Z" class="cls-14"></path><path d="M133.22,144.79c-.21,1-1.69,14.76-2.41,21.5l-.78-.22s.82-19.1,1.73-23c0,0-7.29-17.14-8.93-23.16a59.49,59.49,0,0,0-3.11-8.6h0l6.78,3s3.56,18.94,5.69,23.76S133.49,143.42,133.22,144.79Z" class="cls-87"></path><path d="M158.27,77.75s-1.93,11.08-4.51,14.71a7,7,0,0,1-5.51,2.94c-2.95-.06-9.63-4-10.18-4.29l0,0v4.28l0,17.55a2.67,2.67,0,0,1-.12.82c-.26.94-1.13,2.41-4,2.87a10.64,10.64,0,0,1-1.48.14c-.47,0-1,0-1.54,0a22.33,22.33,0,0,1-3.67-.58c-.89-.21-1.77-.47-2.65-.76-5.59-1.86-10.7-5.17-11.24-6.86-.43-1.32.9-13.1,2.57-23,.36-2.15.74-4.21,1.12-6h0c.75-3.61,2.91-4.76,3.69-5.06l.27-.09s.78-.93,3.65-.68c7.25.65,12.58,3.6,14.74,6.46,0,0,6.42,5,9,6.22,2.15,1,5-8,5.86-11.1a1.25,1.25,0,0,1,1.66-.81,4.43,4.43,0,0,1,1.57,1.06,4.67,4.67,0,0,1,.67.83s0,0,0,.05C158.69,77.31,158.27,77.75,158.27,77.75Z" class="cls-22"></path><path d="M131.58,62.75a8.1,8.1,0,0,0,6.28-2.49c3.1-2.95-.68-8.8-3.89-9.43l.74,1.9s-2.77-1.59-4.68-1l1.82,1.17s-3.74-.75-5.56.28l1.19.71s-5.35,1-5.72,3.27,0,2.51,0,2.51a3.34,3.34,0,0,0-2.57,2.7c-.46,2.34.39,7.42,4.55,9l1.83,1s1,.84,2.09-.83,1-2.4,1-2.4-1.61-2.12-1.24-3.57,2.36-1.1,2.64.82C130,66.42,130,63.25,131.58,62.75Z" class="cls-14"></path><path d="M138.07,91.11l0,0v4.28l0,17.55a2.67,2.67,0,0,1-.12.82c-.26.94-1.13,2.41-4,2.87a10.64,10.64,0,0,1-1.48.14c-.14-1.83-.28-5.37-.24-11.77a104,104,0,0,1,2.32-20.6C134.67,86.87,136.54,89.42,138.07,91.11Z" class="cls-88"></path><path d="M158.27,77.75s-1.93,11.08-4.51,14.71a7,7,0,0,1-5.51,2.94c-2.95-.06-9.63-4-10.18-4.29l0,0v.08c-2.07-2.5-3.3-3.94-3.33-5.65,0,0,7.67,6.46,14.54,5.15,5.56-1,8.14-10.66,8.92-14.27C158.69,77.31,158.27,77.75,158.27,77.75Z" class="cls-89"></path><path d="M124.57,115.39c-5.59-1.86-10.7-5.17-11.24-6.86-.43-1.32.9-13.1,2.56-23,.37-2.15.75-4.21,1.13-6h0a151.45,151.45,0,0,1,2.06,23.82A14.87,14.87,0,0,0,124.57,115.39Z" class="cls-90"></path><path d="M131.11,73.27h0V74.7a6.28,6.28,0,0,1-1.61-2.62A2.38,2.38,0,0,0,131.11,73.27Z" class="cls-91"></path><path d="M120.06,154.82s3.78-3,5.75-1.78c2.39,1.42,2.26,2.19-.24,4.08S110.8,161.45,120.06,154.82Z" class="cls-86"></path></g><g id="gearbox2"><path d="M42.59,98.53l-11.46,6.63a2.84,2.84,0,0,0-1.42,2.46v5.14A2.85,2.85,0,0,0,31,115.14l11.41,7.55a2.85,2.85,0,0,0,3,.1L57,116.11a2.84,2.84,0,0,0,1.43-2.47v-5.19a2.85,2.85,0,0,0-1.31-2.4L45.55,98.6A2.86,2.86,0,0,0,42.59,98.53Z" class="cls-22"></path><path d="M42.59,98.53l-11.46,6.63a2.84,2.84,0,0,0-1.42,2.46v5.14A2.85,2.85,0,0,0,31,115.14l11.41,7.55a2.85,2.85,0,0,0,3,.1L57,116.11a2.84,2.84,0,0,0,1.43-2.47v-5.19a2.85,2.85,0,0,0-1.31-2.4L45.55,98.6A2.86,2.86,0,0,0,42.59,98.53Z" class="cls-92"></path><path d="M32.87,104.85l10.48-6.06a1.4,1.4,0,0,1,1.46,0l10.56,6.77a1.4,1.4,0,0,1-.07,2.4l-10.47,6a1.42,1.42,0,0,1-1.45,0l-10.55-6.69A1.4,1.4,0,0,1,32.87,104.85Z" class="cls-22"></path><path d="M33.45,104.88l9.93-5.69a1.36,1.36,0,0,1,1.39,0l10,6.37a1.31,1.31,0,0,1-.06,2.25l-9.93,5.61a1.34,1.34,0,0,1-1.37,0l-10-6.28A1.32,1.32,0,0,1,33.45,104.88Z" class="cls-93"></path><path d="M36.38,109l7.71-4.52,7.64,5,3-1.69s1.19-.54,1-1.18l-.13-.64L44.51,98.83s-.12-.37-2,.7-9.61,5.53-9.61,5.53a1.41,1.41,0,0,0,0,2A11.63,11.63,0,0,0,36.38,109Z" class="cls-94"></path><polygon points="42.95 103.29 42.95 102.51 42.94 103.23 42.95 104.01 42.95 103.29" class="cls-95"></polygon><polygon points="50.08 104.22 49.13 104.77 49.13 105.49 50.08 104.94 50.08 104.22" class="cls-96"></polygon><polygon points="39.09 104.77 38.14 104.22 38.14 104.94 39.09 105.49 39.09 104.77" class="cls-97"></polygon><path d="M41.11,107.26a.24.24,0,0,1,0-.08s0-.06,0-.09l0-.07a.42.42,0,0,1,0-.1l0-.06.07-.11,0-.06.13-.14,0,0,.09-.08.09-.06.11-.08.11-.07.29-.14.08,0,.24-.09.09,0,.16,0,.11,0,.17,0,.12,0,.34,0h.11l.2,0h.73l.15,0,.14,0a.9.9,0,0,1,.16,0l.13,0,.19,0,.1,0,.32.11.16.07.08,0,.22.12a1.52,1.52,0,0,1,.89,1.25v-.72a1.5,1.5,0,0,0-.89-1.25l-.22-.12-.08,0-.14-.06h0a2.13,2.13,0,0,0-.33-.11h0l-.07,0-.19,0h-.13l-.16,0h-.13l-.15,0h-.73l-.21,0h-.11l-.34,0h0l-.1,0-.16,0-.12,0-.16,0h0l-.06,0-.23.09-.09,0-.29.14,0,0-.08.06a.41.41,0,0,0-.11.07l-.09.07-.09.07,0,0,0,0-.13.14,0,0s0,0,0,0l-.07.11,0,0v0l0,.1,0,0v0a.32.32,0,0,0,0,.09.64.64,0,0,0,0,.07h0a.34.34,0,0,0,0,.1s0,0,0,.06v.74a.25.25,0,0,1,0-.08A.31.31,0,0,1,41.11,107.26Z" class="cls-98"></path><path d="M50.07,107.4a.5.5,0,0,1,0,.13l0,.09a.59.59,0,0,0,0,.08l-.05.09a.3.3,0,0,1,0,.08l-.06.1,0,.07a.86.86,0,0,1-.07.1l0,.07-.16.19,0,0-.15.16-.13.12v.72l.11-.1,0,0,.15-.16,0,0,.15-.19,0,0,0,0,.08-.1,0-.07.06-.1s0,0,0,0,0,0,0,0l.05-.09,0-.08a.36.36,0,0,0,0-.09s0,0,0,0l0-.09h1.34v-.72Z" class="cls-99"></path><path d="M39.11,109.42v-.72a2.93,2.93,0,0,1-.93-1.3H36.85v.72h1.34A3.1,3.1,0,0,0,39.11,109.42Z" class="cls-100"></path><path d="M47.53,109.65l-.5.17-.28.08-.27.07-.29.07-.27,0c-.21,0-.41.07-.62.09v.72a6,6,0,0,0,.61-.09h0l.25-.06.29-.06.27-.07.28-.08h0l.46-.16.95.54L50.1,110v-.72l-1.63,1Z" class="cls-101"></path><path d="M43,110.18l-.43-.06-.31-.05L42,110a1.9,1.9,0,0,1-.36-.09l-.28-.07-.12,0-.47-.16h0l-.95.55-1.64-1V110l1.64.94.94-.55.47.17.13,0,.12,0,.15,0,.36.09.12,0,.15,0,.31,0,.13,0,.3,0h0v.78H45.3V111H43Z" class="cls-102"></path><path d="M48.48,110.2l-.95-.55a9.44,9.44,0,0,1-2.23.53V111H43v-.78a9.21,9.21,0,0,1-2.23-.53l-.95.55-1.64-1,.95-.55a3,3,0,0,1-.94-1.3H36.85v-1.34h1.34a3,3,0,0,1,.91-1.29l-1-.55,1.63-1,.95.55a8.55,8.55,0,0,1,2.23-.53v-.78h2.31v.78a8.36,8.36,0,0,1,2.23.53l.95-.55,1.64,1-.95.55a3,3,0,0,1,.93,1.29H51.4v1.34H50.07a3,3,0,0,1-.91,1.3l1,.55ZM42,108a4.74,4.74,0,0,0,4.28,0,1.32,1.32,0,0,0,0-2.49,4.77,4.77,0,0,0-4.29,0A1.32,1.32,0,0,0,42,108" class="cls-103"></path></g><g id="girl"><path d="M41.54,189.58a12,12,0,0,0,5.43-1c1.64-.84,3,.7,3.27,1.31s-.09,1.46-1.48,2.66C46.39,194.63,36.35,198.68,41.54,189.58Z" class="cls-86"></path><path d="M18.93,130.79s-2.59,10.15-2.55,18.64-1,22.16-1,22.16a8.09,8.09,0,0,1-.59,3.28c-.71,1.92-3.94,11.18-3.94,11.18s.34,2.75,2.84,3.09a4.48,4.48,0,0,0,3.88-1.26s6.08-17.3,6.2-20.09,4-18.26,4.66-20.3S21.75,132,18.93,130.79Z" class="cls-86"></path><path d="M45.2,171.18c-.26,7.41-.87,20.65-.87,20.65s.74,3.83-2.15,3.41l-2.1-.3-.79-.11s-2.76-21-2.59-25.4c0,0-10.28-17.49-13-23.79a73,73,0,0,0-4.62-8.86h0c-.86-1.4-1.43-2.21-1.43-2.21L36,133.89l8.5,27.26S45.45,163.78,45.2,171.18Z" class="cls-14"></path><path d="M35.39,87.91l-.2,8.51a3.16,3.16,0,0,1-2.6,2.69,13.4,13.4,0,0,1-1.54.34h0v3.2a5.28,5.28,0,0,1-3.85-.47c-1.29-.86-1.47-1.81-1.18-3.33a6.1,6.1,0,0,1-3-4.3C21.61,88.46,33,71.14,35.39,87.91Z" class="cls-84"></path><path d="M24.61,100.36s-7.44-1.77-10.83,8.53c0,0-3.61,7.53-2.61,10.75s6.63,3.22,6.63,3.22Z" class="cls-22"></path><path d="M24.61,100.36l-6.81,22.5a12,12,0,0,1-1.55-.13,10,10,0,0,1-2.8-.77,4,4,0,0,1-2.28-2.32c-1-3.22,2.61-10.75,2.61-10.75C17.17,98.59,24.61,100.36,24.61,100.36Z" class="cls-22"></path><path d="M16.25,122.73a10,10,0,0,1-2.8-.77c-1-1.15-.21-3.73,0-4.58.73-2.95,1.6-11.57,5.72-14.56C22.75,100.21,17.62,118.12,16.25,122.73Z" class="cls-104"></path><path d="M40.08,194.94l-.79-.11s-2.76-21-2.6-25.4c0,0-10.27-17.49-13-23.79a73,73,0,0,0-4.62-8.86h0c3.15-1.74,8.58,4,8.58,4s6.48,18.9,9.08,23.15S40.08,194.94,40.08,194.94Z" class="cls-105"></path><path d="M13.27,183.74a11.92,11.92,0,0,0,5.42-1c1.65-.84,3,.7,3.28,1.31s-.09,1.46-1.49,2.66C18.12,188.79,8.08,192.84,13.27,183.74Z" class="cls-86"></path><path d="M53.27,118s.26-1.58,1-1.85.77-.38.94-.6.2.33,0,.85a2.87,2.87,0,0,0,.87-.9c.22-.47.63-.36.52.31s.46,1.8.23,2.89a2.38,2.38,0,0,1-2.39,1.78C53.61,120.24,52.27,119.16,53.27,118Z" class="cls-84"></path><path d="M19.8,99.57s11.55.36,16.74,6.05,6.74,13.21,9.69,13.4,7.49-1.49,7.49-1.49a4,4,0,0,1,1.12,3s-4.23,3.8-8.53,3.89-8-3.34-10-5.42-.88-1.48-.88-1.48a14.78,14.78,0,0,0-1.07,6.3c.29,3.12,3.7,14.9,3.7,14.9s-14.2,5.7-21.34-1.94S14,106.59,19.8,99.57Z" class="cls-106"></path><path d="M35.26,117.86a14.41,14.41,0,0,0-.94,6c.29,3.12,3.7,14.9,3.7,14.9a31.67,31.67,0,0,1-4.8,1.39c-4.79,1-12,1.46-16.54-3.33-7.14-7.64-2.72-30.2,3.12-37.22,0,0,11.55.36,16.74,6.05s6.74,13.21,9.69,13.4,7.49-1.49,7.49-1.49a4,4,0,0,1,1.12,3s-4.23,3.8-8.53,3.89-8-3.34-10-5.42l-.46-.49h0A7.48,7.48,0,0,1,35.26,117.86Z" class="cls-107"></path><path d="M31.05,99.45h0v1.41a6.23,6.23,0,0,1-1.59-2.59A2.33,2.33,0,0,0,31.05,99.45Z" class="cls-91"></path><path d="M35.39,89.77c-2.66,1.2-4,2.3-4,3.35,0,0-.5-1.23-1.1-1.31s-.95,1.32-.18,2.36h0c.76,1,1.09,2-.44,3.41s-6.23,8-2.48,17,3.26,24.82-10.47,24.69a15.49,15.49,0,0,1-4.1-.58C4.91,136.56.46,128.61,0,121a18.1,18.1,0,0,1,1.55-8.71C6.3,102.39,13.16,100.08,14,93.17c0,0,1.22-6.93,4.31-10.93a15,15,0,0,1,9.91-5.49,7.53,7.53,0,0,1,7.52,3.11,11.74,11.74,0,0,1,1.74,4S38,88.58,35.39,89.77Z" class="cls-108"></path><path d="M38,138.73a31.67,31.67,0,0,1-4.8,1.39c-1.07-5.08-2.92-14.7-2.17-17,1-3.11,1.35-10.25,1.35-10.25s1.35,2.32,2.73,4.53c0,.1.12.19.18.29.16.27.33.53.49.78a7.48,7.48,0,0,1-.54-.65,14.54,14.54,0,0,0-.95,6C34.61,127,38,138.73,38,138.73Z" class="cls-109"></path><path d="M29.63,97.59c-1.53,1.4-6.23,8-2.48,17s3.26,24.82-10.47,24.69a15.49,15.49,0,0,1-4.1-.58c10.68-4.84,8-18,5.9-24.11-2.35-6.89,1.47-10.45,6-16.37,2.34-3.06,4.26-4,5.58-4.1h0C30.83,95.21,31.16,96.18,29.63,97.59Z" class="cls-110"></path><path d="M35.69,79.86C34,79,31.23,78.4,26.92,79.68,18.26,82.24,16.1,90.84,15.36,94.54s-.81,4.9-4.48,8.68C8.07,106.11,1.75,111.62,0,121a18.1,18.1,0,0,1,1.55-8.71C6.3,102.39,13.16,100.08,14,93.17c0,0,1.22-6.93,4.31-10.93a15,15,0,0,1,9.91-5.49A7.53,7.53,0,0,1,35.69,79.86Z" class="cls-111"></path></g><g id="monitor"><path d="M188.45,86.05v25.07a2,2,0,0,0,1,1.72l35.9,20.87a2,2,0,0,0,3-1.72V106.88a2,2,0,0,0-1-1.72l-35.9-20.83A2,2,0,0,0,188.45,86.05Z" class="cls-112"></path><path d="M185.58,87.6v25.07a2,2,0,0,0,1,1.72l35.9,20.88a2,2,0,0,0,3-1.72V108.43a2,2,0,0,0-1-1.72l-35.9-20.83A2,2,0,0,0,185.58,87.6Z" class="cls-113"></path><path d="M220.71,136.35a1.9,1.9,0,0,1-.92-.25l-35.9-20.88a1.84,1.84,0,0,1-.92-1.59V88.56a1.85,1.85,0,0,1,1.85-1.85,1.9,1.9,0,0,1,.92.25l35.9,20.83a1.85,1.85,0,0,1,.92,1.6V134.5a1.84,1.84,0,0,1-.56,1.33,1.9,1.9,0,0,1-1.29.52Z" class="cls-114"></path><path d="M184.82,86.86a1.62,1.62,0,0,1,.85.23l35.9,20.83a1.7,1.7,0,0,1,.84,1.47V134.5a1.7,1.7,0,0,1-1.7,1.7,1.62,1.62,0,0,1-.85-.23L184,115.1a1.72,1.72,0,0,1-.84-1.47V88.56a1.7,1.7,0,0,1,1.7-1.7m0-.3a2,2,0,0,0-2,2v25.07a2,2,0,0,0,1,1.72l35.9,20.87a1.92,1.92,0,0,0,1,.27,2,2,0,0,0,2-2V109.39a2,2,0,0,0-1-1.72l-35.9-20.83a1.93,1.93,0,0,0-1-.28Z" class="cls-68"></path><path d="M210.82,107.07a2.38,2.38,0,0,1,1.09,1.87l0,13.78c0,.69-.49,1-1.09.62L190.65,111.7a2.41,2.41,0,0,1-1.09-1.88l0-13.77c0-.69.49-1,1.09-.62Z" class="cls-22"></path><path d="M196.1,101.12c-1.86-1.07-3.61-.79-4.34.9-.9,2.11.13,5.67,2.31,8.13l.51-1.19c-1.48-1.72-2.17-4.17-1.54-5.63.51-1.19,1.75-1.38,3.05-.63a6,6,0,0,1,1,.72l.51-1.18A8.38,8.38,0,0,0,196.1,101.12Z" class="cls-115"></path><path d="M197.56,102.24l-.51,1.18.24.24c1.68,1.73,2.5,4.4,1.84,6l-.08.17,0,0a1.81,1.81,0,0,1-2.45.65,2.85,2.85,0,0,1-.5-.24l-.13-.08-.2-.13,0,0a4.85,4.85,0,0,1-.4-.31l-.05,0-.14-.13-.06-.06-.19-.18-.29-.33-.51,1.19.3.32.27.26.08.08.21.18a.23.23,0,0,0,.07.07,5.57,5.57,0,0,0,.56.43l.05,0,.25.17h0l.18.11.41.22.3.13c1.58.63,3,.23,3.62-1.24.95-2.21-.22-6-2.6-8.45Z" class="cls-7"></path><path d="M204.63,107.05v.36a.28.28,0,0,1-.42.24l-1.7-1a.27.27,0,0,1-.14-.24v-.36a.28.28,0,0,1,.42-.24l1.7,1A.27.27,0,0,1,204.63,107.05Z" class="cls-116"></path><path d="M210,112v.36a.27.27,0,0,1-.41.24l-7.09-4.1a.27.27,0,0,1-.14-.24v-.36a.27.27,0,0,1,.41-.24l7.1,4.1A.28.28,0,0,1,210,112Z" class="cls-117"></path><g class="cls-118"><path d="M207.08,113.87v.36a.28.28,0,0,1-.42.24l-4.16-2.41a.27.27,0,0,1-.14-.24v-.36a.27.27,0,0,1,.41-.24l4.17,2.41A.27.27,0,0,1,207.08,113.87Z" class="cls-119"></path></g><path d="M208.91,113.12v.37a.28.28,0,0,1-.42.23l-6-3.46a.27.27,0,0,1-.14-.24v-.36a.28.28,0,0,1,.42-.24l6,3.46A.27.27,0,0,1,208.91,113.12Z" class="cls-120"></path></g></g></g></svg>